abc.ufo
<glyph name="uni0021" format="1">
  <advance width="265"/>
  <unicode hex="0021"/>
  <outline>
    <contour>
      <point x="111" y="720" type="qcurve" smooth="yes"/>
      <point x="111" y="723"/>
      <point x="115" y="739"/>
      <point x="127" y="739" type="qcurve" smooth="yes"/>
      <point x="147" y="739"/>
      <point x="145" y="680"/>
      <point x="145" y="661" type="qcurve" smooth="yes"/>
      <point x="145" y="555"/>
      <point x="143" y="344"/>
      <point x="143" y="238" type="qcurve" smooth="yes"/>
      <point x="143" y="215"/>
      <point x="144" y="167"/>
      <point x="144" y="144" type="qcurve"/>
      <point x="120" y="144" type="line"/>
      <point x="120" y="156" type="line" smooth="yes"/>
      <point x="120" y="181"/>
      <point x="118" y="312"/>
      <point x="115" y="474"/>
      <point x="112" y="621"/>
      <point x="112" y="662" type="qcurve" smooth="yes"/>
      <point x="111" y="688"/>
      <point x="111" y="719"/>
    </contour>
    <contour>
      <point x="134" y="22" type="qcurve" smooth="yes"/>
      <point x="155" y="22"/>
      <point x="155" y="1" type="qcurve" smooth="yes"/>
      <point x="155" y="-21"/>
      <point x="130" y="-21" type="qcurve" smooth="yes"/>
      <point x="110" y="-21"/>
      <point x="110" y="-2" type="qcurve" smooth="yes"/>
      <point x="110" y="22"/>
    </contour>
  </outline>
</glyph>
<glyph name="uni0022" format="1">
  <advance width="279"/>
  <unicode hex="0022"/>
  <outline>
    <contour>
      <point x="181" y="685" type="line" smooth="yes"/>
      <point x="181" y="687"/>
      <point x="184" y="700"/>
      <point x="195" y="700" type="qcurve" smooth="yes"/>
      <point x="203" y="700"/>
      <point x="208" y="688"/>
      <point x="209" y="686" type="qcurve"/>
      <point x="209" y="664" type="line"/>
      <point x="206" y="481" type="line"/>
      <point x="186" y="481" type="line"/>
      <point x="186" y="486" type="line"/>
      <point x="187" y="499"/>
      <point x="184" y="568"/>
      <point x="181" y="643"/>
      <point x="181" y="663" type="qcurve" smooth="yes"/>
    </contour>
    <contour>
      <point x="71" y="684" type="qcurve"/>
      <point x="71" y="686"/>
      <point x="74" y="700"/>
      <point x="85" y="700" type="qcurve" smooth="yes"/>
      <point x="94" y="700"/>
      <point x="98" y="686"/>
      <point x="99" y="684" type="qcurve"/>
      <point x="99" y="667" type="line" smooth="yes"/>
      <point x="99" y="621"/>
      <point x="96" y="527"/>
      <point x="97" y="480" type="qcurve"/>
      <point x="77" y="480" type="line"/>
      <point x="77" y="489"/>
      <point x="75" y="556"/>
      <point x="73" y="633"/>
      <point x="71" y="687"/>
    </contour>
  </outline>
</glyph>
<glyph name="uni0028" format="1">
  <advance width="295"/>
  <unicode hex="0028"/>
  <outline>
    <contour>
      <point x="50" y="300" type="qcurve" smooth="yes"/>
      <point x="50" y="399"/>
      <point x="108" y="561"/>
      <point x="184" y="677"/>
      <point x="243" y="740"/>
      <point x="243" y="740" type="qcurve"/>
      <point x="268" y="737" type="line"/>
      <point x="268" y="737"/>
      <point x="213" y="679"/>
      <point x="139" y="567"/>
      <point x="81" y="405"/>
      <point x="79" y="301" type="qcurve"/>
      <point x="82" y="199"/>
      <point x="142" y="36"/>
      <point x="217" y="-79"/>
      <point x="274" y="-139"/>
      <point x="274" y="-139" type="qcurve"/>
      <point x="243" y="-139" type="line"/>
      <point x="243" y="-139"/>
      <point x="184" y="-77"/>
      <point x="108" y="39"/>
      <point x="50" y="201"/>
    </contour>
  </outline>
</glyph>
<glyph name="uni0031" format="1">
  <advance width="311"/>
  <unicode hex="0031"/>
  <outline>
    <contour>
      <point x="187" y="534" type="line"/>
      <point x="183" y="60" type="line"/>
      <point x="183" y="20"/>
      <point x="206" y="20" type="qcurve" smooth="yes"/>
      <point x="281" y="20" type="line"/>
      <point x="281" y="0" type="line"/>
      <point x="278" y="-1"/>
      <point x="188" y="-2"/>
      <point x="89" y="-2"/>
      <point x="71" y="-2" type="qcurve"/>
      <point x="71" y="20" type="line"/>
      <point x="93" y="20"/>
      <point x="129" y="23"/>
      <point x="129" y="23" type="qcurve"/>
      <point x="142" y="24"/>
      <point x="156" y="38"/>
      <point x="156" y="60" type="qcurve" smooth="yes"/>
      <point x="159" y="499" type="line"/>
      <point x="145" y="486"/>
      <point x="113" y="463"/>
      <point x="98" y="451" type="qcurve" smooth="yes"/>
      <point x="56" y="417" type="line"/>
      <point x="50" y="438" type="line"/>
      <point x="59" y="446"/>
      <point x="84" y="466"/>
      <point x="95" y="476" type="qcurve" smooth="yes"/>
      <point x="169" y="537" type="line"/>
    </contour>
  </outline>
</glyph>
<glyph name="uni0032" format="1">
  <advance width="449"/>
  <unicode hex="0032"/>
  <outline>
    <contour>
      <point x="397" y="-11" type="line"/>
      <point x="384" y="-11"/>
      <point x="268" y="-11"/>
      <point x="131" y="-10"/>
      <point x="84" y="-10" type="qcurve" smooth="yes"/>
      <point x="37" y="-10" type="line"/>
      <point x="37" y="-8"/>
      <point x="36" y="-2"/>
      <point x="36" y="0" type="qcurve" smooth="yes"/>
      <point x="36" y="7"/>
      <point x="37" y="10" type="qcurve"/>
      <point x="38" y="10"/>
      <point x="131" y="80"/>
      <point x="252" y="196"/>
      <point x="345" y="336"/>
      <point x="345" y="405" type="qcurve" smooth="yes"/>
      <point x="345" y="461"/>
      <point x="289" y="531"/>
      <point x="210" y="531" type="qcurve" smooth="yes"/>
      <point x="152" y="531"/>
      <point x="74" y="465"/>
      <point x="35" y="398"/>
      <point x="35" y="396" type="qcurve"/>
      <point x="20" y="407" type="line"/>
      <point x="20" y="408"/>
      <point x="59" y="481"/>
      <point x="142" y="556"/>
      <point x="209" y="557" type="qcurve" smooth="yes"/>
      <point x="304" y="559"/>
      <point x="374" y="465"/>
      <point x="374" y="406" type="qcurve" smooth="yes"/>
      <point x="374" y="336"/>
      <point x="290" y="202"/>
      <point x="177" y="92"/>
      <point x="86" y="21"/>
      <point x="79" y="14" type="qcurve"/>
      <point x="117" y="13"/>
      <point x="186" y="10"/>
      <point x="224" y="10" type="qcurve" smooth="yes"/>
      <point x="345" y="10" type="line" smooth="yes"/>
      <point x="356" y="10"/>
      <point x="369" y="19"/>
      <point x="371" y="44" type="qcurve"/>
      <point x="378" y="94" type="line"/>
      <point x="399" y="94" type="line"/>
    </contour>
  </outline>
</glyph>
<glyph name="uni0037" format="1">
  <advance width="452"/>
  <unicode hex="0037"/>
  <outline>
    <contour>
      <point x="403" y="476" type="line"/>
      <point x="125" y="477" type="line" smooth="yes"/>
      <point x="93" y="477"/>
      <point x="61" y="470"/>
      <point x="59" y="450" type="qcurve" smooth="yes"/>
      <point x="48" y="337" type="line"/>
      <point x="46" y="337" type="line" smooth="yes"/>
      <point x="43" y="337"/>
      <point x="30" y="336"/>
      <point x="30" y="336" type="qcurve"/>
      <point x="30" y="377"/>
      <point x="32" y="463"/>
      <point x="32" y="503" type="qcurve"/>
      <point x="429" y="503" type="line"/>
      <point x="431" y="498"/>
      <point x="431" y="490"/>
      <point x="432" y="485" type="qcurve"/>
      <point x="366" y="295"/>
      <point x="234" y="-86"/>
      <point x="169" y="-276" type="qcurve"/>
      <point x="169" y="-276"/>
      <point x="152" y="-277"/>
      <point x="146" y="-277" type="qcurve" smooth="yes"/>
      <point x="143" y="-277" type="line"/>
    </contour>
  </outline>
</glyph>
<glyph name="uni0039" format="1">
  <advance width="500"/>
  <unicode hex="0039"/>
  <outline>
    <contour>
      <point x="220" y="6" type="qcurve" smooth="yes"/>
      <point x="124" y="7"/>
      <point x="30" y="147"/>
      <point x="30" y="249" type="qcurve" smooth="yes"/>
      <point x="30" y="254"/>
      <point x="31" y="265"/>
      <point x="31" y="271" type="qcurve" smooth="yes"/>
      <point x="31" y="278" type="line" smooth="yes"/>
      <point x="30" y="386"/>
      <point x="143" y="539"/>
      <point x="244" y="540" type="qcurve" smooth="yes"/>
      <point x="359" y="539"/>
      <point x="450" y="372"/>
      <point x="450" y="268" type="qcurve" smooth="yes"/>
      <point x="450" y="73"/>
      <point x="288" y="-182"/>
      <point x="175" y="-241" type="qcurve"/>
      <point x="174" y="-240"/>
      <point x="163" y="-221"/>
      <point x="163" y="-221" type="qcurve"/>
      <point x="264" y="-170"/>
      <point x="368" y="-16"/>
      <point x="409" y="125"/>
      <point x="415" y="157" type="qcurve"/>
      <point x="414" y="151"/>
      <point x="378" y="77"/>
      <point x="294" y="6"/>
    </contour>
    <contour>
      <point x="222" y="27" type="qcurve" smooth="yes"/>
      <point x="285" y="27"/>
      <point x="363" y="86"/>
      <point x="406" y="170"/>
      <point x="422" y="247"/>
      <point x="422" y="266" type="qcurve" smooth="yes"/>
      <point x="422" y="368"/>
      <point x="340" y="519"/>
      <point x="245" y="519" type="qcurve" smooth="yes"/>
      <point x="179" y="519"/>
      <point x="96" y="442"/>
      <point x="57" y="331"/>
      <point x="57" y="279" type="qcurve" smooth="yes"/>
      <point x="57" y="158"/>
      <point x="145" y="28"/>
    </contour>
  </outline>
</glyph>
<glyph name="uni003B" format="1">
  <advance width="156"/>
  <unicode hex="003B"/>
  <outline>
    <contour>
      <point x="85" y="475" type="qcurve" smooth="yes"/>
      <point x="106" y="475"/>
      <point x="106" y="454" type="qcurve" smooth="yes"/>
      <point x="106" y="431"/>
      <point x="84" y="431" type="qcurve" smooth="yes"/>
      <point x="61" y="431"/>
      <point x="61" y="451" type="qcurve" smooth="yes"/>
      <point x="61" y="475"/>
    </contour>
    <contour>
      <point x="84" y="39" type="qcurve" smooth="yes"/>
      <point x="99" y="39"/>
      <point x="106" y="16"/>
      <point x="106" y="8" type="qcurve" smooth="yes"/>
      <point x="106" y="-45"/>
      <point x="60" y="-130"/>
      <point x="62" y="-130" type="qcurve"/>
      <point x="50" y="-130" type="line"/>
      <point x="50" y="-130"/>
      <point x="76" y="-61"/>
      <point x="80" y="-5" type="qcurve"/>
      <point x="60" y="-5"/>
      <point x="60" y="16" type="qcurve" smooth="yes"/>
      <point x="60" y="39"/>
    </contour>
  </outline>
</glyph>
<glyph name="uni003F" format="1">
  <advance width="509"/>
  <unicode hex="003F"/>
  <outline>
    <contour>
      <point x="235" y="142" type="line"/>
      <point x="205" y="142" type="line"/>
      <point x="205" y="308" type="line"/>
      <point x="279" y="313"/>
      <point x="427" y="409"/>
      <point x="438" y="512" type="qcurve"/>
      <point x="438" y="528" type="line" smooth="yes"/>
      <point x="438" y="611"/>
      <point x="324" y="738"/>
      <point x="217" y="738" type="qcurve" smooth="yes"/>
      <point x="138" y="738"/>
      <point x="59" y="676"/>
      <point x="54" y="665" type="qcurve"/>
      <point x="55" y="663"/>
      <point x="58" y="653"/>
      <point x="58" y="646" type="qcurve" smooth="yes"/>
      <point x="58" y="623"/>
      <point x="39" y="623" type="qcurve" smooth="yes"/>
      <point x="20" y="623"/>
      <point x="20" y="641" type="qcurve" smooth="yes"/>
      <point x="20" y="650"/>
      <point x="27" y="664" type="qcurve"/>
      <point x="27" y="668"/>
      <point x="67" y="715"/>
      <point x="150" y="760"/>
      <point x="215" y="760" type="qcurve" smooth="yes"/>
      <point x="335" y="760"/>
      <point x="469" y="632"/>
      <point x="469" y="524" type="qcurve" smooth="yes"/>
      <point x="469" y="507" type="line"/>
      <point x="469" y="507"/>
      <point x="460" y="448"/>
      <point x="418" y="368"/>
      <point x="322" y="299"/>
      <point x="235" y="290" type="qcurve"/>
    </contour>
    <contour>
      <point x="221" y="9" type="qcurve" smooth="yes"/>
      <point x="241" y="9"/>
      <point x="241" y="-11" type="qcurve" smooth="yes"/>
      <point x="241" y="-34"/>
      <point x="217" y="-34" type="qcurve" smooth="yes"/>
      <point x="197" y="-34"/>
      <point x="197" y="-14" type="qcurve" smooth="yes"/>
      <point x="197" y="9"/>
    </contour>
  </outline>
</glyph>
<glyph name="uni0042" format="1">
  <advance width="637"/>
  <unicode hex="0042"/>
  <outline>
    <contour>
      <point x="293" y="695" type="line" smooth="yes"/>
      <point x="254" y="694"/>
      <point x="175" y="691"/>
      <point x="134" y="689" type="qcurve"/>
      <point x="134" y="689"/>
      <point x="136" y="606"/>
      <point x="138" y="495"/>
      <point x="141" y="403"/>
      <point x="141" y="393" type="qcurve"/>
      <point x="155" y="393"/>
      <point x="184" y="394"/>
      <point x="199" y="394" type="qcurve" smooth="yes"/>
      <point x="214" y="394"/>
      <point x="243" y="393"/>
      <point x="259" y="393" type="qcurve" smooth="yes"/>
      <point x="302" y="393"/>
      <point x="425" y="403"/>
      <point x="521" y="462"/>
      <point x="521" y="534" type="qcurve" smooth="yes"/>
      <point x="521" y="550"/>
      <point x="503" y="625"/>
      <point x="416" y="693"/>
      <point x="312" y="695" type="qcurve" smooth="yes"/>
    </contour>
    <contour>
      <point x="371" y="368" type="line"/>
      <point x="371" y="368"/>
      <point x="259" y="369"/>
      <point x="208" y="369" type="qcurve" smooth="yes"/>
      <point x="186" y="369"/>
      <point x="153" y="369"/>
      <point x="145" y="368" type="qcurve"/>
      <point x="143" y="366"/>
      <point x="143" y="334" type="qcurve" smooth="yes"/>
      <point x="143" y="300"/>
      <point x="144" y="196"/>
      <point x="145" y="93"/>
      <point x="146" y="23"/>
      <point x="146" y="23" type="qcurve"/>
      <point x="156" y="23"/>
      <point x="253" y="23"/>
      <point x="348" y="24"/>
      <point x="353" y="24" type="qcurve" smooth="yes"/>
      <point x="446" y="24"/>
      <point x="544" y="80"/>
      <point x="583" y="156"/>
      <point x="588" y="215"/>
      <point x="588" y="218" type="qcurve" smooth="yes"/>
      <point x="588" y="242"/>
      <point x="563" y="313"/>
      <point x="476" y="368"/>
      <point x="384" y="368" type="qcurve" smooth="yes"/>
    </contour>
    <contour>
      <point x="22" y="709" type="qcurve"/>
      <point x="296" y="714" type="line"/>
      <point x="317" y="714" type="line" smooth="yes"/>
      <point x="404" y="714"/>
      <point x="499" y="670"/>
      <point x="540" y="607"/>
      <point x="549" y="551"/>
      <point x="549" y="539" type="qcurve" smooth="yes"/>
      <point x="549" y="476"/>
      <point x="491" y="412"/>
      <point x="428" y="390"/>
      <point x="419" y="387" type="qcurve"/>
      <point x="511" y="383"/>
      <point x="617" y="298"/>
      <point x="617" y="212" type="qcurve" smooth="yes"/>
      <point x="617" y="126"/>
      <point x="535" y="34"/>
      <point x="414" y="0"/>
      <point x="355" y="0" type="qcurve" smooth="yes"/>
      <point x="40" y="0" type="line"/>
      <point x="39" y="6"/>
      <point x="39" y="22"/>
      <point x="38" y="25" type="qcurve"/>
      <point x="45" y="24"/>
      <point x="80" y="26"/>
      <point x="87" y="26" type="qcurve" smooth="yes"/>
      <point x="118" y="26"/>
      <point x="116" y="55" type="qcurve"/>
      <point x="115" y="191"/>
      <point x="109" y="522"/>
      <point x="108" y="664" type="qcurve" smooth="yes"/>
      <point x="107" y="686"/>
      <point x="73" y="687" type="qcurve" smooth="yes"/>
      <point x="20" y="688" type="line"/>
      <point x="20" y="695"/>
    </contour>
  </outline>
</glyph>
<glyph name="uni0053" format="1">
  <advance width="580"/>
  <unicode hex="0053"/>
  <outline>
    <contour>
      <point x="317" y="-27" type="qcurve" smooth="yes"/>
      <point x="402" y="-27"/>
      <point x="482" y="44"/>
      <point x="507" y="133"/>
      <point x="507" y="159" type="qcurve" smooth="yes"/>
      <point x="507" y="227"/>
      <point x="442" y="295"/>
      <point x="340" y="325"/>
      <point x="226" y="344"/>
      <point x="124" y="379"/>
      <point x="59" y="458"/>
      <point x="59" y="535" type="qcurve" smooth="yes"/>
      <point x="59" y="608"/>
      <point x="128" y="692"/>
      <point x="233" y="728"/>
      <point x="288" y="728" type="qcurve" smooth="yes"/>
      <point x="369" y="728"/>
      <point x="466" y="674"/>
      <point x="466" y="671" type="qcurve" smooth="yes"/>
      <point x="466" y="628"/>
      <point x="465" y="543"/>
      <point x="464" y="500" type="qcurve"/>
      <point x="458" y="500"/>
      <point x="447" y="499"/>
      <point x="441" y="499" type="qcurve"/>
      <point x="440" y="540"/>
      <point x="440" y="620"/>
      <point x="438" y="660" type="qcurve"/>
      <point x="439" y="660"/>
      <point x="359" y="702"/>
      <point x="302" y="702" type="qcurve" smooth="yes"/>
      <point x="222" y="702"/>
      <point x="89" y="634"/>
      <point x="89" y="537" type="qcurve" smooth="yes"/>
      <point x="90" y="465"/>
      <point x="154" y="392"/>
      <point x="255" y="359"/>
      <point x="369" y="340"/>
      <point x="471" y="309"/>
      <point x="537" y="238"/>
      <point x="539" y="169" type="qcurve" smooth="yes"/>
      <point x="539" y="66"/>
      <point x="428" y="-49"/>
      <point x="324" y="-53" type="qcurve" smooth="yes"/>
      <point x="239" y="-53"/>
      <point x="124" y="2"/>
      <point x="67" y="56"/>
      <point x="66" y="56" type="qcurve"/>
      <point x="66" y="67"/>
      <point x="65" y="93"/>
      <point x="65" y="109" type="qcurve" smooth="yes"/>
      <point x="65" y="140"/>
      <point x="66" y="205"/>
      <point x="66" y="226" type="qcurve"/>
      <point x="72" y="225"/>
      <point x="87" y="226"/>
      <point x="92" y="226" type="qcurve"/>
      <point x="93" y="187"/>
      <point x="92" y="104"/>
      <point x="93" y="65" type="qcurve"/>
      <point x="149" y="10"/>
      <point x="272" y="-27"/>
    </contour>
  </outline>
</glyph>
<glyph name="uni005D" format="1">
  <advance width="278"/>
  <unicode hex="005D"/>
  <outline>
    <contour>
      <point x="178" y="-136" type="qcurve"/>
      <point x="170" y="-136"/>
      <point x="105" y="-134"/>
      <point x="40" y="-133"/>
      <point x="32" y="-133" type="qcurve"/>
      <point x="32" y="-112" type="line"/>
      <point x="151" y="-112" type="line"/>
      <point x="151" y="-69" type="line" smooth="yes"/>
      <point x="151" y="-18"/>
      <point x="150" y="160"/>
      <point x="149" y="368"/>
      <point x="147" y="562"/>
      <point x="146" y="700"/>
      <point x="146" y="716" type="qcurve"/>
      <point x="30" y="716" type="line"/>
      <point x="32" y="738" type="line"/>
      <point x="68" y="738"/>
      <point x="140" y="739"/>
      <point x="175" y="740" type="qcurve"/>
      <point x="175" y="722"/>
      <point x="175" y="590"/>
      <point x="176" y="403"/>
      <point x="176" y="199"/>
      <point x="177" y="13"/>
      <point x="178" y="-118"/>
    </contour>
  </outline>
</glyph>
<glyph name="uni005E" format="1">
  <advance width="403"/>
  <unicode hex="005E"/>
  <outline>
    <contour>
      <point x="40" y="383" type="line"/>
      <point x="188" y="698" type="line"/>
      <point x="211" y="700" type="line"/>
      <point x="363" y="393" type="line"/>
      <point x="334" y="393" type="line"/>
      <point x="200" y="667" type="line"/>
      <point x="197" y="659"/>
      <point x="158" y="577"/>
      <point x="108" y="473"/>
      <point x="69" y="391"/>
      <point x="66" y="383" type="qcurve"/>
    </contour>
  </outline>
</glyph>
<glyph name="uni0060" format="1">
  <advance width="229"/>
  <unicode hex="0060"/>
  <outline>
    <contour>
      <point x="40" y="720" type="qcurve"/>
      <point x="38" y="732"/>
      <point x="54" y="742"/>
      <point x="64" y="737" type="qcurve"/>
      <point x="88" y="718"/>
      <point x="133" y="667"/>
      <point x="155" y="644" type="qcurve" smooth="yes"/>
      <point x="188" y="610" type="line"/>
      <point x="185" y="606"/>
      <point x="178" y="600"/>
      <point x="174" y="596" type="qcurve"/>
      <point x="174" y="597"/>
      <point x="129" y="636"/>
      <point x="73" y="685"/>
      <point x="58" y="699" type="qcurve"/>
      <point x="58" y="699"/>
      <point x="42" y="713"/>
    </contour>
  </outline>
</glyph>
<glyph name="uni0064" format="1">
  <advance width="658"/>
  <unicode hex="0064"/>
  <outline>
    <contour>
      <point x="342" y="-7" type="qcurve" smooth="yes"/>
      <point x="262" y="-7"/>
      <point x="190" y="-4"/>
      <point x="146" y="-4" type="qcurve" smooth="yes"/>
      <point x="127" y="-4"/>
      <point x="75" y="-4"/>
      <point x="40" y="-5" type="qcurve"/>
      <point x="40" y="18" type="line"/>
      <point x="118" y="18" type="line" smooth="yes"/>
      <point x="146" y="18"/>
      <point x="148" y="45" type="qcurve"/>
      <point x="148" y="50"/>
      <point x="146" y="178"/>
      <point x="143" y="361"/>
      <point x="139" y="542"/>
      <point x="137" y="665"/>
      <point x="137" y="666" type="qcurve" smooth="yes"/>
      <point x="137" y="684"/>
      <point x="114" y="693"/>
      <point x="100" y="693" type="qcurve" smooth="yes"/>
      <point x="84" y="693"/>
      <point x="37" y="691"/>
      <point x="21" y="691" type="qcurve"/>
      <point x="21" y="696"/>
      <point x="20" y="707"/>
      <point x="20" y="713" type="qcurve"/>
      <point x="76" y="715"/>
      <point x="150" y="716"/>
      <point x="181" y="716" type="qcurve" smooth="yes"/>
      <point x="212" y="716"/>
      <point x="275" y="716"/>
      <point x="324" y="714" type="qcurve" smooth="yes"/>
      <point x="443" y="711"/>
      <point x="575" y="591"/>
      <point x="628" y="420"/>
      <point x="628" y="340" type="qcurve" smooth="yes"/>
      <point x="628" y="254"/>
      <point x="575" y="95"/>
      <point x="451" y="-7"/>
    </contour>
    <contour>
      <point x="345" y="15" type="qcurve" smooth="yes"/>
      <point x="426" y="14"/>
      <point x="527" y="83"/>
      <point x="580" y="188"/>
      <point x="600" y="299"/>
      <point x="600" y="339" type="qcurve" smooth="yes"/>
      <point x="600" y="371"/>
      <point x="580" y="486"/>
      <point x="523" y="606"/>
      <point x="413" y="691"/>
      <point x="322" y="693" type="qcurve" smooth="yes"/>
      <point x="309" y="693" type="line"/>
      <point x="302" y="694"/>
      <point x="255" y="694"/>
      <point x="231" y="694" type="qcurve" smooth="yes"/>
      <point x="209" y="694"/>
      <point x="171" y="692"/>
      <point x="167" y="692" type="qcurve"/>
      <point x="167" y="686"/>
      <point x="169" y="573"/>
      <point x="172" y="413"/>
      <point x="174" y="258"/>
      <point x="176" y="159"/>
      <point x="176" y="164" type="qcurve"/>
      <point x="176" y="157"/>
      <point x="179" y="103"/>
      <point x="178" y="46" type="qcurve"/>
      <point x="178" y="24"/>
      <point x="195" y="16"/>
      <point x="217" y="16" type="qcurve" smooth="yes"/>
      <point x="222" y="16"/>
      <point x="259" y="16"/>
    </contour>
  </outline>
</glyph>
<glyph name="uni0067" format="1">
  <advance width="624"/>
  <unicode hex="0067"/>
  <outline>
    <contour>
      <point x="524" y="29" type="qcurve"/>
      <point x="522" y="28"/>
      <point x="456" y="-19"/>
      <point x="345" y="-20" type="qcurve" smooth="yes"/>
      <point x="333" y="-20" type="line" smooth="yes"/>
      <point x="218" y="-20"/>
      <point x="34" y="171"/>
      <point x="29" y="360" type="qcurve" smooth="yes"/>
      <point x="29" y="462"/>
      <point x="100" y="634"/>
      <point x="243" y="739"/>
      <point x="349" y="739" type="qcurve" smooth="yes"/>
      <point x="400" y="739"/>
      <point x="484" y="720"/>
      <point x="508" y="711" type="qcurve" smooth="yes"/>
      <point x="534" y="701" type="line"/>
      <point x="534" y="653"/>
      <point x="531" y="552"/>
      <point x="531" y="502" type="qcurve"/>
      <point x="509" y="505" type="line"/>
      <point x="509" y="686" type="line"/>
      <point x="419" y="719"/>
      <point x="344" y="719" type="qcurve" smooth="yes"/>
      <point x="237" y="719"/>
      <point x="112" y="606"/>
      <point x="59" y="442"/>
      <point x="59" y="365" type="qcurve" smooth="yes"/>
      <point x="59" y="288"/>
      <point x="116" y="119"/>
      <point x="242" y="2"/>
      <point x="345" y="1" type="qcurve" smooth="yes"/>
      <point x="415" y="2"/>
      <point x="481" y="26"/>
      <point x="501" y="50"/>
      <point x="502" y="50" type="qcurve"/>
      <point x="502" y="55"/>
      <point x="502" y="116"/>
      <point x="502" y="194"/>
      <point x="502" y="256"/>
      <point x="502" y="260" type="qcurve" smooth="yes"/>
      <point x="502" y="263"/>
      <point x="495" y="273"/>
      <point x="478" y="273" type="qcurve" smooth="yes"/>
      <point x="387" y="274" type="line"/>
      <point x="388" y="295" type="line"/>
      <point x="543" y="293" type="line" smooth="yes"/>
      <point x="561" y="293"/>
      <point x="605" y="292"/>
      <point x="623" y="292" type="qcurve"/>
      <point x="623" y="273" type="line"/>
      <point x="552" y="273" type="line" smooth="yes"/>
      <point x="528" y="273"/>
      <point x="529" y="260" type="qcurve"/>
      <point x="529" y="205"/>
      <point x="526" y="87"/>
    </contour>
  </outline>
</glyph>
<glyph name="uni0069" format="1">
  <advance width="317"/>
  <unicode hex="0069"/>
  <outline>
    <contour>
      <point x="297" y="-6" type="line"/>
      <point x="205" y="-6"/>
      <point x="105" y="-5"/>
      <point x="47" y="-3" type="qcurve"/>
      <point x="47" y="14" type="line"/>
      <point x="134" y="14" type="line" smooth="yes"/>
      <point x="152" y="14"/>
      <point x="159" y="34"/>
      <point x="159" y="46" type="qcurve" smooth="yes"/>
      <point x="155" y="213"/>
      <point x="153" y="492"/>
      <point x="151" y="653" type="qcurve"/>
      <point x="150" y="663"/>
      <point x="133" y="677"/>
      <point x="101" y="677" type="qcurve" smooth="yes"/>
      <point x="23" y="677" type="line"/>
      <point x="20" y="699" type="line"/>
      <point x="85" y="701"/>
      <point x="232" y="703"/>
      <point x="297" y="704" type="qcurve"/>
      <point x="297" y="680" type="line"/>
      <point x="223" y="680" type="line" smooth="yes"/>
      <point x="192" y="680"/>
      <point x="183" y="658"/>
      <point x="183" y="650" type="qcurve" smooth="yes"/>
      <point x="184" y="351" type="line" smooth="yes"/>
      <point x="184" y="325"/>
      <point x="185" y="273"/>
      <point x="185" y="247" type="qcurve" smooth="yes"/>
      <point x="185" y="154" type="line" smooth="yes"/>
      <point x="185" y="122"/>
      <point x="187" y="78"/>
      <point x="187" y="46" type="qcurve" smooth="yes"/>
      <point x="187" y="15"/>
      <point x="207" y="15" type="qcurve" smooth="yes"/>
      <point x="297" y="14" type="line"/>
    </contour>
  </outline>
</glyph>
<glyph name="uni006C" format="1">
  <advance width="547"/>
  <unicode hex="006C"/>
  <outline>
    <contour>
      <point x="27" y="23" type="line"/>
      <point x="90" y="24" type="line" smooth="yes"/>
      <point x="104" y="24"/>
      <point x="129" y="38"/>
      <point x="127" y="60" type="qcurve"/>
      <point x="127" y="68"/>
      <point x="128" y="97"/>
      <point x="129" y="139" type="qcurve" smooth="yes"/>
      <point x="129" y="312" type="line" smooth="yes"/>
      <point x="129" y="407"/>
      <point x="128" y="601"/>
      <point x="128" y="659" type="qcurve" smooth="yes"/>
      <point x="128" y="690"/>
      <point x="100" y="690" type="qcurve" smooth="yes"/>
      <point x="90" y="690"/>
      <point x="47" y="691"/>
      <point x="20" y="692" type="qcurve"/>
      <point x="20" y="715" type="line"/>
      <point x="141" y="712" type="line" smooth="yes"/>
      <point x="177" y="711"/>
      <point x="256" y="708"/>
      <point x="291" y="708" type="qcurve"/>
      <point x="291" y="686" type="line"/>
      <point x="273" y="686"/>
      <point x="205" y="685"/>
      <point x="187" y="686" type="qcurve" smooth="yes"/>
      <point x="157" y="687"/>
      <point x="157" y="657" type="qcurve" smooth="yes"/>
      <point x="157" y="77" type="line" smooth="yes"/>
      <point x="157" y="57"/>
      <point x="168" y="26"/>
      <point x="200" y="26" type="qcurve" smooth="yes"/>
      <point x="477" y="26" type="line" smooth="yes"/>
      <point x="501" y="26"/>
      <point x="502" y="63" type="qcurve" smooth="yes"/>
      <point x="502" y="91"/>
      <point x="503" y="145"/>
      <point x="503" y="186" type="qcurve"/>
      <point x="527" y="186" type="line"/>
      <point x="527" y="0" type="line"/>
      <point x="27" y="0" type="line"/>
    </contour>
  </outline>
</glyph>
<glyph name="uni006E" format="1">
  <advance width="706"/>
  <unicode hex="006E"/>
  <outline>
    <contour>
      <point x="569" y="50" type="line"/>
      <point x="559" y="655" type="line"/>
      <point x="557" y="680"/>
      <point x="532" y="679" type="qcurve" smooth="yes"/>
      <point x="531" y="679"/>
      <point x="473" y="680"/>
      <point x="459" y="680" type="qcurve"/>
      <point x="459" y="700" type="line"/>
      <point x="686" y="702" type="line"/>
      <point x="685" y="697"/>
      <point x="685" y="685" type="qcurve"/>
      <point x="615" y="685" type="line" smooth="yes"/>
      <point x="594" y="685"/>
      <point x="582" y="660"/>
      <point x="582" y="655" type="qcurve" smooth="yes"/>
      <point x="583" y="531"/>
      <point x="588" y="300"/>
      <point x="590" y="175" type="qcurve" smooth="yes"/>
      <point x="591" y="132"/>
      <point x="592" y="43"/>
      <point x="593" y="0" type="qcurve"/>
      <point x="571" y="0" type="line"/>
      <point x="513" y="85"/>
      <point x="400" y="258"/>
      <point x="343" y="345" type="qcurve" smooth="yes"/>
      <point x="138" y="658" type="line"/>
      <point x="138" y="649"/>
      <point x="141" y="508"/>
      <point x="147" y="315"/>
      <point x="151" y="128"/>
      <point x="151" y="72" type="qcurve" smooth="yes"/>
      <point x="151" y="32"/>
      <point x="164" y="21"/>
      <point x="208" y="21" type="qcurve" smooth="yes"/>
      <point x="255" y="21" type="line"/>
      <point x="255" y="9" type="line" smooth="yes"/>
      <point x="255" y="1"/>
      <point x="256" y="-1" type="qcurve"/>
      <point x="201" y="0"/>
      <point x="86" y="0"/>
      <point x="31" y="0" type="qcurve"/>
      <point x="33" y="20" type="line"/>
      <point x="95" y="20" type="line" smooth="yes"/>
      <point x="124" y="20"/>
      <point x="128" y="50" type="qcurve"/>
      <point x="122" y="354" type="line" smooth="yes"/>
      <point x="121" y="433"/>
      <point x="117" y="564"/>
      <point x="115" y="645" type="qcurve" smooth="yes"/>
      <point x="115" y="664"/>
      <point x="76" y="678"/>
      <point x="62" y="678" type="qcurve" smooth="yes"/>
      <point x="20" y="678" type="line"/>
      <point x="20" y="701" type="line"/>
      <point x="143" y="699" type="line"/>
      <point x="196" y="618"/>
      <point x="306" y="451"/>
      <point x="362" y="367" type="qcurve" smooth="yes"/>
    </contour>
  </outline>
</glyph>
<glyph name="uni0072" format="1">
  <advance width="650"/>
  <unicode hex="0072"/>
  <outline>
    <contour>
      <point x="517" y="227" type="line"/>
      <point x="540" y="164"/>
      <point x="550" y="44"/>
      <point x="578" y="-35"/>
      <point x="627" y="-35" type="qcurve" smooth="yes"/>
      <point x="649" y="-35"/>
      <point x="670" y="-16"/>
      <point x="673" y="-14" type="qcurve"/>
      <point x="680" y="-28" type="line"/>
      <point x="680" y="-28"/>
      <point x="652" y="-57"/>
      <point x="617" y="-57" type="qcurve" smooth="yes"/>
      <point x="557" y="-57"/>
      <point x="519" y="30"/>
      <point x="508" y="158"/>
      <point x="487" y="218" type="qcurve" smooth="yes"/>
      <point x="460" y="298"/>
      <point x="338" y="333"/>
      <point x="270" y="333" type="qcurve" smooth="yes"/>
      <point x="141" y="336" type="line"/>
      <point x="142" y="312"/>
      <point x="142" y="263"/>
      <point x="142" y="237" type="qcurve" smooth="yes"/>
      <point x="142" y="202"/>
      <point x="143" y="114"/>
      <point x="143" y="78" type="qcurve" smooth="yes"/>
      <point x="143" y="50"/>
      <point x="151" y="20"/>
      <point x="173" y="20" type="qcurve" smooth="yes"/>
      <point x="196" y="20"/>
      <point x="225" y="21"/>
      <point x="248" y="21" type="qcurve"/>
      <point x="248" y="-1" type="line"/>
      <point x="20" y="-1" type="line"/>
      <point x="20" y="19" type="line"/>
      <point x="33" y="19"/>
      <point x="58" y="20"/>
      <point x="73" y="20" type="qcurve" smooth="yes"/>
      <point x="117" y="20"/>
      <point x="116" y="70" type="qcurve" smooth="yes"/>
      <point x="111" y="405" type="line" smooth="yes"/>
      <point x="110" y="475"/>
      <point x="107" y="589"/>
      <point x="105" y="660" type="qcurve" smooth="yes"/>
      <point x="104" y="677"/>
      <point x="78" y="690"/>
      <point x="63" y="690" type="qcurve" smooth="yes"/>
      <point x="20" y="689" type="line"/>
      <point x="20" y="708" type="line"/>
      <point x="90" y="709"/>
      <point x="233" y="710"/>
      <point x="303" y="710" type="qcurve" smooth="yes"/>
      <point x="398" y="710"/>
      <point x="502" y="661"/>
      <point x="547" y="592"/>
      <point x="556" y="525"/>
      <point x="556" y="507" type="qcurve" smooth="yes"/>
      <point x="556" y="427"/>
      <point x="453" y="348"/>
      <point x="388" y="342" type="qcurve"/>
      <point x="427" y="331"/>
      <point x="499" y="283"/>
      <point x="517" y="226" type="qcurve"/>
    </contour>
    <contour>
      <point x="142" y="363" type="qcurve"/>
      <point x="323" y="358" type="line" smooth="yes"/>
      <point x="416" y="358"/>
      <point x="524" y="434"/>
      <point x="524" y="519" type="qcurve" smooth="yes"/>
      <point x="524" y="546"/>
      <point x="501" y="626"/>
      <point x="406" y="688"/>
      <point x="299" y="688" type="qcurve" smooth="yes"/>
      <point x="138" y="688" type="line"/>
      <point x="138" y="685"/>
      <point x="139" y="592"/>
      <point x="140" y="471"/>
      <point x="142" y="373"/>
    </contour>
  </outline>
</glyph>
<glyph name="uni0076" format="1">
  <advance width="693"/>
  <unicode hex="0076"/>
  <outline>
    <contour>
      <point x="343" y="-41" type="line"/>
      <point x="279" y="129"/>
      <point x="143" y="486"/>
      <point x="78" y="656" type="qcurve" smooth="yes"/>
      <point x="68" y="681"/>
      <point x="40" y="683" type="qcurve" smooth="yes"/>
      <point x="24" y="684"/>
      <point x="-5" y="683"/>
      <point x="-19" y="683" type="qcurve"/>
      <point x="-19" y="698"/>
      <point x="-20" y="704" type="qcurve"/>
      <point x="22" y="704" type="line" smooth="yes"/>
      <point x="73" y="704"/>
      <point x="167" y="701"/>
      <point x="210" y="701" type="qcurve"/>
      <point x="210" y="683" type="line"/>
      <point x="158" y="683" type="line" smooth="yes"/>
      <point x="137" y="683"/>
      <point x="100" y="678"/>
      <point x="108" y="665" type="qcurve"/>
      <point x="136" y="591"/>
      <point x="187" y="456"/>
      <point x="214" y="382" type="qcurve" smooth="yes"/>
      <point x="355" y="2" type="line"/>
      <point x="420" y="192"/>
      <point x="497" y="427"/>
      <point x="545" y="583"/>
      <point x="568" y="654" type="qcurve"/>
      <point x="583" y="684"/>
      <point x="548" y="680" type="qcurve"/>
      <point x="490" y="680" type="line"/>
      <point x="490" y="702" type="line"/>
      <point x="552" y="702"/>
      <point x="665" y="698"/>
      <point x="713" y="698" type="qcurve"/>
      <point x="713" y="694"/>
      <point x="713" y="679"/>
      <point x="712" y="676" type="qcurve"/>
      <point x="624" y="676" type="line" smooth="yes"/>
      <point x="606" y="676"/>
      <point x="601" y="660" type="qcurve" smooth="yes"/>
      <point x="366" y="-40" type="line"/>
    </contour>
  </outline>
</glyph>
<glyph name="uni007B" format="1">
  <advance width="336"/>
  <unicode hex="007B"/>
  <outline>
    <contour>
      <point x="275" y="-138" type="qcurve" smooth="yes"/>
      <point x="190" y="-138"/>
      <point x="119" y="-66"/>
      <point x="119" y="16" type="qcurve" smooth="yes"/>
      <point x="119" y="21"/>
      <point x="120" y="30"/>
      <point x="120" y="35" type="qcurve" smooth="yes"/>
      <point x="123" y="113" type="line" smooth="yes"/>
      <point x="124" y="130"/>
      <point x="124" y="164"/>
      <point x="124" y="180" type="qcurve" smooth="yes"/>
      <point x="124" y="234"/>
      <point x="95" y="304"/>
      <point x="30" y="305" type="qcurve"/>
      <point x="30" y="329" type="line"/>
      <point x="101" y="330"/>
      <point x="124" y="410"/>
      <point x="124" y="472" type="qcurve" smooth="yes"/>
      <point x="124" y="497" type="line"/>
      <point x="120" y="576" type="line"/>
      <point x="120" y="591" type="line" smooth="yes"/>
      <point x="120" y="677"/>
      <point x="193" y="749"/>
      <point x="278" y="749" type="qcurve" smooth="yes"/>
      <point x="336" y="749" type="line"/>
      <point x="336" y="728" type="line"/>
      <point x="277" y="728" type="line" smooth="yes"/>
      <point x="206" y="728"/>
      <point x="146" y="661"/>
      <point x="146" y="582" type="qcurve" smooth="yes"/>
      <point x="146" y="553"/>
      <point x="150" y="477"/>
      <point x="150" y="438" type="qcurve" smooth="yes"/>
      <point x="150" y="403" type="line"/>
      <point x="148" y="362"/>
      <point x="108" y="326"/>
      <point x="68" y="317"/>
      <point x="65" y="315" type="qcurve"/>
      <point x="73" y="312"/>
      <point x="114" y="304"/>
      <point x="150" y="257"/>
      <point x="150" y="194" type="qcurve" smooth="yes"/>
      <point x="150" y="154"/>
      <point x="146" y="68"/>
      <point x="146" y="39" type="qcurve" smooth="yes"/>
      <point x="146" y="-44"/>
      <point x="202" y="-118"/>
      <point x="278" y="-118" type="qcurve" smooth="yes"/>
      <point x="327" y="-118" type="line"/>
      <point x="327" y="-137" type="line"/>
      <point x="322" y="-138"/>
    </contour>
  </outline>
</glyph>
<glyph name="uni007E" format="1">
  <advance width="446"/>
  <unicode hex="007E"/>
  <outline>
    <contour>
      <point x="336" y="217" type="qcurve" smooth="yes"/>
      <point x="289" y="219"/>
      <point x="242" y="260"/>
      <point x="212" y="314"/>
      <point x="172" y="354"/>
      <point x="132" y="354" type="qcurve" smooth="yes"/>
      <point x="107" y="354"/>
      <point x="51" y="304"/>
      <point x="51" y="220" type="qcurve"/>
      <point x="30" y="220" type="line"/>
      <point x="30" y="251" type="line" smooth="yes"/>
      <point x="30" y="376"/>
      <point x="133" y="379" type="qcurve" smooth="yes"/>
      <point x="180" y="379"/>
      <point x="227" y="338"/>
      <point x="258" y="283"/>
      <point x="298" y="242"/>
      <point x="338" y="242" type="qcurve" smooth="yes"/>
      <point x="376" y="242"/>
      <point x="395" y="315"/>
      <point x="395" y="343" type="qcurve" smooth="yes"/>
      <point x="395" y="375" type="line"/>
      <point x="414" y="375" type="line"/>
      <point x="415" y="364"/>
      <point x="416" y="341"/>
      <point x="416" y="330" type="qcurve" smooth="yes"/>
      <point x="416" y="217"/>
    </contour>
  </outline>
</glyph>
<glyph name="uni00A7" format="1">
  <advance width="492"/>
  <unicode hex="00A7"/>
  <outline>
    <contour>
      <point x="230" y="-12" type="qcurve" smooth="yes"/>
      <point x="230" y="-17"/>
      <point x="231" y="-27"/>
      <point x="231" y="-31" type="qcurve" smooth="yes"/>
      <point x="231" y="-92"/>
      <point x="176" y="-197"/>
      <point x="119" y="-218" type="qcurve"/>
      <point x="132" y="-216"/>
      <point x="221" y="-188"/>
      <point x="325" y="-119"/>
      <point x="401" y="3"/>
      <point x="401" y="99" type="qcurve" smooth="yes"/>
      <point x="401" y="117"/>
      <point x="400" y="127" type="qcurve"/>
      <point x="400" y="172"/>
      <point x="346" y="262"/>
      <point x="276" y="355"/>
      <point x="222" y="457"/>
      <point x="222" y="514" type="qcurve" smooth="yes"/>
      <point x="222" y="564"/>
      <point x="251" y="679"/>
      <point x="309" y="710" type="qcurve"/>
      <point x="204" y="679"/>
      <point x="73" y="479"/>
      <point x="73" y="366" type="qcurve" smooth="yes"/>
      <point x="73" y="284"/>
      <point x="149" y="163"/>
      <point x="227" y="54"/>
    </contour>
    <contour>
      <point x="203" y="-4" type="line"/>
      <point x="196" y="46"/>
      <point x="119" y="151"/>
      <point x="46" y="282"/>
      <point x="46" y="371" type="qcurve" smooth="yes"/>
      <point x="46" y="467"/>
      <point x="133" y="635"/>
      <point x="281" y="740"/>
      <point x="372" y="740" type="qcurve" smooth="yes"/>
      <point x="415" y="740"/>
      <point x="415" y="708" type="qcurve" smooth="yes"/>
      <point x="415" y="690"/>
      <point x="394" y="690" type="qcurve" smooth="yes"/>
      <point x="382" y="690"/>
      <point x="371" y="705" type="qcurve"/>
      <point x="325" y="700"/>
      <point x="252" y="600"/>
      <point x="252" y="533" type="qcurve" smooth="yes"/>
      <point x="252" y="501"/>
      <point x="262" y="470" type="qcurve"/>
      <point x="261" y="471" type="line"/>
      <point x="268" y="417"/>
      <point x="343" y="314"/>
      <point x="419" y="208"/>
      <point x="427" y="149" type="qcurve" smooth="yes"/>
      <point x="432" y="116"/>
      <point x="432" y="93" type="qcurve" smooth="yes"/>
      <point x="432" y="-19"/>
      <point x="315" y="-170"/>
      <point x="149" y="-248"/>
      <point x="75" y="-249" type="qcurve" smooth="yes"/>
      <point x="56" y="-249"/>
      <point x="41" y="-230"/>
      <point x="41" y="-223" type="qcurve" smooth="yes"/>
      <point x="41" y="-221"/>
      <point x="44" y="-200"/>
      <point x="60" y="-198" type="qcurve" smooth="yes"/>
      <point x="74" y="-196"/>
      <point x="77" y="-214" type="qcurve"/>
      <point x="121" y="-212"/>
      <point x="205" y="-116"/>
      <point x="205" y="-38" type="qcurve" smooth="yes"/>
      <point x="205" y="-31"/>
      <point x="204" y="-18"/>
      <point x="203" y="-10" type="qcurve"/>
    </contour>
  </outline>
</glyph>
<glyph name="uni00A9" format="1">
  <advance width="920"/>
  <unicode hex="00A9"/>
  <outline>
    <contour>
      <point x="494" y="728" type="line" smooth="yes"/>
      <point x="676" y="725"/>
      <point x="880" y="471"/>
      <point x="880" y="271" type="qcurve" smooth="yes"/>
      <point x="880" y="179"/>
      <point x="797" y="-22"/>
      <point x="617" y="-160"/>
      <point x="470" y="-160" type="qcurve" smooth="yes"/>
      <point x="365" y="-160"/>
      <point x="167" y="-63"/>
      <point x="40" y="128"/>
      <point x="40" y="268" type="qcurve" smooth="yes"/>
      <point x="40" y="430"/>
      <point x="171" y="633"/>
      <point x="379" y="728"/>
      <point x="492" y="728" type="qcurve" smooth="yes"/>
    </contour>
    <contour>
      <point x="490" y="708" type="line" smooth="yes"/>
      <point x="283" y="708"/>
      <point x="68" y="453"/>
      <point x="68" y="250" type="qcurve" smooth="yes"/>
      <point x="68" y="125"/>
      <point x="191" y="-50"/>
      <point x="374" y="-140"/>
      <point x="464" y="-140" type="qcurve" smooth="yes"/>
      <point x="576" y="-140"/>
      <point x="752" y="-34"/>
      <point x="853" y="151"/>
      <point x="853" y="269" type="qcurve" smooth="yes"/>
      <point x="853" y="332"/>
      <point x="820" y="480"/>
      <point x="740" y="615"/>
      <point x="600" y="705"/>
      <point x="493" y="708" type="qcurve" smooth="yes"/>
    </contour>
    <contour>
      <point x="493" y="80" type="qcurve" smooth="yes"/>
      <point x="548" y="80"/>
      <point x="603" y="122"/>
      <point x="612" y="129" type="qcurve"/>
      <point x="619" y="112" type="line"/>
      <point x="617" y="110"/>
      <point x="556" y="59"/>
      <point x="490" y="59" type="qcurve" smooth="yes"/>
      <point x="390" y="59"/>
      <point x="280" y="192"/>
      <point x="280" y="284" type="qcurve" smooth="yes"/>
      <point x="280" y="387"/>
      <point x="418" y="494"/>
      <point x="503" y="494" type="qcurve" smooth="yes"/>
      <point x="567" y="494"/>
      <point x="627" y="463" type="qcurve"/>
      <point x="627" y="339" type="line"/>
      <point x="608" y="339" type="line"/>
      <point x="608" y="365"/>
      <point x="608" y="421"/>
      <point x="607" y="447" type="qcurve"/>
      <point x="548" y="473"/>
      <point x="499" y="473" type="qcurve" smooth="yes"/>
      <point x="408" y="473"/>
      <point x="309" y="352"/>
      <point x="307" y="288" type="qcurve"/>
      <point x="307" y="252"/>
      <point x="341" y="154"/>
      <point x="422" y="80"/>
    </contour>
  </outline>
</glyph>
<glyph name="uni00AB" format="1">
  <advance width="381"/>
  <unicode hex="00AB"/>
  <outline>
    <contour>
      <point x="183" y="257" type="line"/>
      <point x="214" y="310"/>
      <point x="278" y="418"/>
      <point x="309" y="471" type="qcurve"/>
      <point x="341" y="471" type="line"/>
      <point x="215" y="258" type="line"/>
      <point x="340" y="50" type="line"/>
      <point x="311" y="50" type="line"/>
    </contour>
    <contour>
      <point x="40" y="255" type="line"/>
      <point x="71" y="308"/>
      <point x="134" y="415"/>
      <point x="165" y="468" type="qcurve"/>
      <point x="197" y="468" type="line"/>
      <point x="72" y="257" type="line"/>
      <point x="92" y="225"/>
      <point x="130" y="161"/>
      <point x="149" y="129" type="qcurve" smooth="yes"/>
      <point x="198" y="49" type="line"/>
      <point x="166" y="49" type="line"/>
      <point x="141" y="88"/>
      <point x="91" y="170"/>
      <point x="67" y="210" type="qcurve" smooth="yes"/>
    </contour>
  </outline>
</glyph>
<glyph name="uni00AE" format="1">
  <advance width="919"/>
  <unicode hex="00AE"/>
  <outline>
    <contour>
      <point x="494" y="728" type="line" smooth="yes"/>
      <point x="676" y="725"/>
      <point x="879" y="471"/>
      <point x="879" y="271" type="qcurve" smooth="yes"/>
      <point x="879" y="179"/>
      <point x="797" y="-22"/>
      <point x="617" y="-160"/>
      <point x="470" y="-160" type="qcurve" smooth="yes"/>
      <point x="352" y="-160"/>
      <point x="156" y="-49"/>
      <point x="40" y="146"/>
      <point x="41" y="271" type="qcurve" smooth="yes"/>
      <point x="43" y="426"/>
      <point x="173" y="628"/>
      <point x="379" y="728"/>
      <point x="492" y="728" type="qcurve" smooth="yes"/>
    </contour>
    <contour>
      <point x="490" y="708" type="line" smooth="yes"/>
      <point x="283" y="708"/>
      <point x="73" y="456"/>
      <point x="69" y="264" type="qcurve" smooth="yes"/>
      <point x="67" y="142"/>
      <point x="182" y="-40"/>
      <point x="369" y="-140"/>
      <point x="474" y="-140" type="qcurve" smooth="yes"/>
      <point x="586" y="-140"/>
      <point x="756" y="-34"/>
      <point x="851" y="151"/>
      <point x="851" y="269" type="qcurve" smooth="yes"/>
      <point x="851" y="332"/>
      <point x="819" y="480"/>
      <point x="739" y="615"/>
      <point x="600" y="705"/>
      <point x="493" y="708" type="qcurve" smooth="yes"/>
    </contour>
    <contour>
      <point x="482" y="264" type="line" smooth="yes"/>
      <point x="528" y="264"/>
      <point x="589" y="300"/>
      <point x="589" y="345" type="qcurve" smooth="yes"/>
      <point x="589" y="353"/>
      <point x="580" y="400"/>
      <point x="537" y="442"/>
      <point x="484" y="442" type="qcurve" smooth="yes"/>
      <point x="406" y="439" type="line"/>
      <point x="396" y="438"/>
      <point x="375" y="438"/>
      <point x="364" y="438" type="qcurve"/>
      <point x="368" y="265" type="line"/>
      <point x="378" y="265"/>
      <point x="398" y="264"/>
      <point x="408" y="264" type="qcurve" smooth="yes"/>
    </contour>
    <contour>
      <point x="475" y="242" type="qcurve" smooth="yes"/>
      <point x="462" y="242"/>
      <point x="433" y="243"/>
      <point x="419" y="243" type="qcurve" smooth="yes"/>
      <point x="368" y="243" type="line"/>
      <point x="369" y="214"/>
      <point x="368" y="166"/>
      <point x="368" y="137" type="qcurve" smooth="yes"/>
      <point x="368" y="124"/>
      <point x="389" y="120"/>
      <point x="402" y="120" type="qcurve" smooth="yes"/>
      <point x="410" y="120"/>
      <point x="442" y="121"/>
      <point x="447" y="121" type="qcurve"/>
      <point x="447" y="103" type="line"/>
      <point x="439" y="103"/>
      <point x="370" y="102"/>
      <point x="297" y="101"/>
      <point x="282" y="100" type="qcurve"/>
      <point x="282" y="120" type="line"/>
      <point x="312" y="120" type="line" smooth="yes"/>
      <point x="333" y="120"/>
      <point x="344" y="129"/>
      <point x="344" y="136" type="qcurve" smooth="yes"/>
      <point x="340" y="427" type="line"/>
      <point x="341" y="438"/>
      <point x="325" y="438" type="qcurve" smooth="yes"/>
      <point x="316" y="438"/>
      <point x="294" y="438"/>
      <point x="283" y="437" type="qcurve"/>
      <point x="283" y="457" type="line"/>
      <point x="489" y="465" type="line"/>
      <point x="552" y="464"/>
      <point x="606" y="414"/>
      <point x="617" y="358"/>
      <point x="617" y="346" type="qcurve" smooth="yes"/>
      <point x="617" y="302"/>
      <point x="564" y="251"/>
      <point x="523" y="244" type="qcurve"/>
      <point x="565" y="155" type="line" smooth="yes"/>
      <point x="581" y="123"/>
      <point x="600" y="124" type="qcurve"/>
      <point x="649" y="124" type="line"/>
      <point x="649" y="111"/>
      <point x="650" y="103" type="qcurve"/>
      <point x="563" y="105" type="line"/>
      <point x="563" y="105"/>
      <point x="536" y="161"/>
      <point x="505" y="228"/>
      <point x="498" y="242" type="qcurve"/>
      <point x="496" y="242"/>
      <point x="492" y="241"/>
      <point x="490" y="241" type="qcurve" smooth="yes"/>
      <point x="486" y="241"/>
      <point x="479" y="242"/>
    </contour>
  </outline>
</glyph>
<glyph name="uni00BB" format="1">
  <advance width="382"/>
  <unicode hex="00BB"/>
  <outline>
    <contour>
      <point x="71" y="471" type="line"/>
      <point x="178" y="290" type="line"/>
      <point x="197" y="255" type="line"/>
      <point x="165" y="203"/>
      <point x="102" y="100"/>
      <point x="70" y="50" type="qcurve"/>
      <point x="41" y="50" type="line"/>
      <point x="72" y="103"/>
      <point x="137" y="206"/>
      <point x="168" y="258" type="qcurve"/>
      <point x="40" y="471" type="line"/>
    </contour>
    <contour>
      <point x="216" y="470" type="line"/>
      <point x="247" y="417"/>
      <point x="311" y="308"/>
      <point x="342" y="255" type="qcurve"/>
      <point x="313" y="210" type="line" smooth="yes"/>
      <point x="289" y="170"/>
      <point x="239" y="88"/>
      <point x="214" y="49" type="qcurve"/>
      <point x="182" y="49" type="line"/>
      <point x="213" y="102"/>
      <point x="278" y="205"/>
      <point x="310" y="256" type="qcurve"/>
      <point x="278" y="309"/>
      <point x="213" y="418"/>
      <point x="181" y="470" type="qcurve"/>
    </contour>
  </outline>
</glyph>
<glyph name="uni0414" format="1">
  <advance width="678"/>
  <unicode hex="0414"/>
  <outline>
    <contour>
      <point x="648" y="-169" type="line"/>
      <point x="625" y="-169" type="line"/>
      <point x="625" y="-145"/>
      <point x="626" y="-73"/>
      <point x="617" y="-42" type="qcurve" smooth="yes"/>
      <point x="611" y="-21"/>
      <point x="590" y="-11"/>
      <point x="575" y="-10" type="qcurve"/>
      <point x="29" y="-8" type="line" smooth="yes"/>
      <point x="14" y="-8"/>
      <point x="8" y="-27" type="qcurve"/>
      <point x="5" y="-165" type="line"/>
      <point x="2" y="-166"/>
      <point x="-15" y="-166"/>
      <point x="-19" y="-166" type="qcurve"/>
      <point x="-20" y="-138"/>
      <point x="-17" y="-67"/>
      <point x="-17" y="-38" type="qcurve" smooth="yes"/>
      <point x="-17" y="16" type="line"/>
      <point x="42" y="16" type="line"/>
      <point x="54" y="32"/>
      <point x="127" y="160"/>
      <point x="192" y="425"/>
      <point x="192" y="644" type="qcurve" smooth="yes"/>
      <point x="192" y="670"/>
      <point x="162" y="670" type="qcurve" smooth="yes"/>
      <point x="80" y="670" type="line"/>
      <point x="81" y="695" type="line"/>
      <point x="638" y="697" type="line"/>
      <point x="638" y="671" type="line"/>
      <point x="628" y="671"/>
      <point x="591" y="670"/>
      <point x="582" y="670" type="qcurve" smooth="yes"/>
      <point x="552" y="670"/>
      <point x="552" y="647" type="qcurve" smooth="yes"/>
      <point x="560" y="153" type="line" smooth="yes"/>
      <point x="561" y="118"/>
      <point x="562" y="41"/>
      <point x="569" y="12" type="qcurve"/>
      <point x="647" y="12" type="line"/>
      <point x="647" y="-16"/>
      <point x="648" y="-87"/>
      <point x="648" y="-118" type="qcurve" smooth="yes"/>
    </contour>
    <contour>
      <point x="218" y="671" type="line"/>
      <point x="215" y="431"/>
      <point x="152" y="159"/>
      <point x="83" y="35"/>
      <point x="70" y="15" type="qcurve"/>
      <point x="531" y="12" type="line"/>
      <point x="528" y="157" type="line" smooth="yes"/>
      <point x="526" y="248"/>
      <point x="526" y="428"/>
      <point x="523" y="519" type="qcurve" smooth="yes"/>
      <point x="519" y="672" type="line"/>
      <point x="484" y="672"/>
      <point x="415" y="671"/>
      <point x="380" y="671" type="qcurve" smooth="yes"/>
    </contour>
  </outline>
</glyph>
<glyph name="uni0416" format="1">
  <advance width="936"/>
  <unicode hex="0416"/>
  <outline>
    <contour>
      <point x="789" y="670" type="qcurve"/>
      <point x="807" y="690"/>
      <point x="764" y="690" type="qcurve" smooth="yes"/>
      <point x="751" y="690"/>
      <point x="724" y="689"/>
      <point x="710" y="689" type="qcurve"/>
      <point x="710" y="711" type="line"/>
      <point x="712" y="711"/>
      <point x="774" y="711"/>
      <point x="858" y="711"/>
      <point x="930" y="710"/>
      <point x="942" y="709" type="qcurve"/>
      <point x="941" y="702"/>
      <point x="941" y="689" type="qcurve"/>
      <point x="920" y="689"/>
      <point x="852" y="688"/>
      <point x="844" y="677" type="qcurve"/>
      <point x="814" y="652"/>
      <point x="770" y="608"/>
      <point x="741" y="579" type="qcurve"/>
      <point x="569" y="387" type="line"/>
      <point x="605" y="385"/>
      <point x="696" y="370"/>
      <point x="779" y="318"/>
      <point x="801" y="260" type="qcurve" smooth="yes"/>
      <point x="825" y="197"/>
      <point x="830" y="76"/>
      <point x="856" y="-4"/>
      <point x="911" y="-4" type="qcurve" smooth="yes"/>
      <point x="934" y="-4"/>
      <point x="954" y="13"/>
      <point x="957" y="16" type="qcurve"/>
      <point x="966" y="-3" type="line"/>
      <point x="965" y="-5"/>
      <point x="937" y="-29"/>
      <point x="904" y="-29" type="qcurve" smooth="yes"/>
      <point x="842" y="-30"/>
      <point x="802" y="60"/>
      <point x="791" y="188"/>
      <point x="772" y="244" type="qcurve" smooth="yes"/>
      <point x="754" y="297"/>
      <point x="672" y="348"/>
      <point x="584" y="363"/>
      <point x="557" y="363" type="qcurve" smooth="yes"/>
      <point x="539" y="363" type="line"/>
      <point x="539" y="389" type="line" smooth="yes"/>
      <point x="539" y="390"/>
      <point x="590" y="448"/>
      <point x="664" y="531"/>
      <point x="739" y="614"/>
      <point x="789" y="670"/>
    </contour>
    <contour>
      <point x="574" y="6" type="line"/>
      <point x="367" y="7" type="line"/>
      <point x="367" y="28" type="line"/>
      <point x="378" y="28"/>
      <point x="408" y="26"/>
      <point x="424" y="27" type="qcurve" smooth="yes"/>
      <point x="450" y="28"/>
      <point x="450" y="50" type="qcurve" smooth="yes"/>
      <point x="450" y="231"/>
      <point x="446" y="508"/>
      <point x="444" y="660" type="qcurve" smooth="yes"/>
      <point x="444" y="671"/>
      <point x="434" y="684"/>
      <point x="414" y="685" type="qcurve" smooth="yes"/>
      <point x="339" y="685" type="line"/>
      <point x="339" y="709" type="line"/>
      <point x="590" y="709" type="line"/>
      <point x="590" y="687" type="line"/>
      <point x="577" y="686"/>
      <point x="507" y="687"/>
      <point x="507" y="687" type="qcurve"/>
      <point x="478" y="687"/>
      <point x="478" y="660" type="qcurve" smooth="yes"/>
      <point x="478" y="500"/>
      <point x="481" y="208"/>
      <point x="481" y="50" type="qcurve" smooth="yes"/>
      <point x="481" y="30"/>
      <point x="514" y="30" type="qcurve" smooth="yes"/>
      <point x="531" y="30"/>
      <point x="557" y="28"/>
      <point x="574" y="27" type="qcurve"/>
    </contour>
    <contour>
      <point x="224" y="691" type="line"/>
      <point x="201" y="691"/>
      <point x="128" y="691"/>
      <point x="138" y="676" type="qcurve"/>
      <point x="138" y="676"/>
      <point x="190" y="619"/>
      <point x="266" y="535"/>
      <point x="343" y="450"/>
      <point x="395" y="392"/>
      <point x="395" y="391" type="qcurve" smooth="yes"/>
      <point x="395" y="384"/>
      <point x="394" y="372"/>
      <point x="394" y="365" type="qcurve"/>
      <point x="374" y="365" type="line" smooth="yes"/>
      <point x="347" y="365"/>
      <point x="261" y="351"/>
      <point x="181" y="301"/>
      <point x="163" y="246" type="qcurve" smooth="yes"/>
      <point x="142" y="188"/>
      <point x="128" y="66"/>
      <point x="91" y="-17"/>
      <point x="34" y="-17" type="qcurve" smooth="yes"/>
      <point x="-1" y="-17"/>
      <point x="-29" y="8"/>
      <point x="-30" y="10" type="qcurve"/>
      <point x="-20" y="26" type="line"/>
      <point x="-17" y="23"/>
      <point x="10" y="3"/>
      <point x="34" y="3" type="qcurve" smooth="yes"/>
      <point x="79" y="3"/>
      <point x="101" y="80"/>
      <point x="110" y="200"/>
      <point x="134" y="263" type="qcurve" smooth="yes"/>
      <point x="156" y="321"/>
      <point x="238" y="372"/>
      <point x="330" y="387"/>
      <point x="365" y="389" type="qcurve"/>
      <point x="307" y="453"/>
      <point x="190" y="581"/>
      <point x="134" y="644" type="qcurve" smooth="yes"/>
      <point x="121" y="659"/>
      <point x="81" y="692"/>
      <point x="57" y="691" type="qcurve" smooth="yes"/>
      <point x="-7" y="691" type="line"/>
      <point x="-8" y="711" type="line"/>
      <point x="6" y="713"/>
      <point x="78" y="713"/>
      <point x="161" y="713"/>
      <point x="222" y="713"/>
      <point x="224" y="713" type="qcurve"/>
    </contour>
  </outline>
</glyph>
<glyph name="uni0417" format="1">
  <advance width="539"/>
  <unicode hex="0417"/>
  <outline>
    <contour>
      <point x="281" y="368" type="qcurve"/>
      <point x="281" y="369"/>
      <point x="233" y="370"/>
      <point x="186" y="371"/>
      <point x="185" y="371" type="qcurve"/>
      <point x="185" y="372"/>
      <point x="184" y="379"/>
      <point x="184" y="382" type="qcurve" smooth="yes"/>
      <point x="184" y="392" type="line"/>
      <point x="195" y="392"/>
      <point x="250" y="393"/>
      <point x="261" y="394" type="qcurve"/>
      <point x="276" y="394" type="line"/>
      <point x="335" y="401"/>
      <point x="428" y="470"/>
      <point x="428" y="540" type="qcurve" smooth="yes"/>
      <point x="428" y="558"/>
      <point x="411" y="634"/>
      <point x="334" y="698"/>
      <point x="244" y="698" type="qcurve" smooth="yes"/>
      <point x="201" y="698"/>
      <point x="122" y="669"/>
      <point x="73" y="639"/>
      <point x="75" y="637" type="qcurve"/>
      <point x="75" y="624"/>
      <point x="74" y="597"/>
      <point x="74" y="583" type="qcurve" smooth="yes"/>
      <point x="74" y="556"/>
      <point x="75" y="502"/>
      <point x="75" y="476" type="qcurve"/>
      <point x="60" y="476"/>
      <point x="52" y="477" type="qcurve"/>
      <point x="52" y="508"/>
      <point x="51" y="569"/>
      <point x="51" y="600" type="qcurve" smooth="yes"/>
      <point x="51" y="653" type="line"/>
      <point x="51" y="653"/>
      <point x="153" y="718"/>
      <point x="231" y="723" type="qcurve"/>
      <point x="339" y="723"/>
      <point x="437" y="654"/>
      <point x="462" y="571"/>
      <point x="462" y="549" type="qcurve" smooth="yes"/>
      <point x="462" y="483"/>
      <point x="400" y="413"/>
      <point x="334" y="387"/>
      <point x="327" y="384" type="qcurve"/>
      <point x="332" y="383"/>
      <point x="389" y="373"/>
      <point x="458" y="337"/>
      <point x="509" y="260"/>
      <point x="509" y="191" type="qcurve" smooth="yes"/>
      <point x="509" y="111"/>
      <point x="433" y="15"/>
      <point x="317" y="-26"/>
      <point x="257" y="-26" type="qcurve" smooth="yes"/>
      <point x="182" y="-26"/>
      <point x="83" y="20"/>
      <point x="34" y="66"/>
      <point x="33" y="66" type="qcurve"/>
      <point x="30" y="206" type="line"/>
      <point x="37" y="205"/>
      <point x="51" y="205" type="qcurve"/>
      <point x="53" y="136"/>
      <point x="60" y="77" type="qcurve"/>
      <point x="94" y="38"/>
      <point x="182" y="-1"/>
      <point x="268" y="-2" type="qcurve"/>
      <point x="352" y="2"/>
      <point x="443" y="66"/>
      <point x="478" y="150"/>
      <point x="478" y="184" type="qcurve" smooth="yes"/>
      <point x="478" y="248"/>
      <point x="399" y="363"/>
    </contour>
  </outline>
</glyph>
<glyph name="uni041B" format="1">
  <advance width="712"/>
  <unicode hex="041B"/>
  <outline>
    <contour>
      <point x="531" y="12" type="qcurve" smooth="yes"/>
      <point x="548" y="13"/>
      <point x="560" y="15"/>
      <point x="560" y="40" type="qcurve" smooth="yes"/>
      <point x="560" y="198"/>
      <point x="552" y="514"/>
      <point x="548" y="671" type="qcurve"/>
      <point x="254" y="671" type="line"/>
      <point x="234" y="503"/>
      <point x="210" y="315"/>
      <point x="199" y="230"/>
      <point x="194" y="208"/>
      <point x="194" y="206" type="qcurve"/>
      <point x="194" y="207" type="line"/>
      <point x="181" y="89"/>
      <point x="126" y="-20"/>
      <point x="75" y="-20" type="qcurve" smooth="yes"/>
      <point x="29" y="-20"/>
      <point x="0" y="32"/>
      <point x="0" y="46" type="qcurve" smooth="yes"/>
      <point x="0" y="67"/>
      <point x="19" y="67" type="qcurve" smooth="yes"/>
      <point x="31" y="67"/>
      <point x="43" y="46"/>
      <point x="31" y="32" type="qcurve"/>
      <point x="27" y="28"/>
      <point x="56" y="1"/>
      <point x="75" y="1" type="qcurve" smooth="yes"/>
      <point x="110" y="1"/>
      <point x="145" y="64"/>
      <point x="163" y="159"/>
      <point x="170" y="206" type="qcurve"/>
      <point x="171" y="207"/>
      <point x="171" y="210" type="qcurve" smooth="yes"/>
      <point x="171" y="215"/>
      <point x="172" y="216"/>
      <point x="178" y="255"/>
      <point x="195" y="378"/>
      <point x="210" y="506" type="qcurve" smooth="yes"/>
      <point x="226" y="640" type="line" smooth="yes"/>
      <point x="227" y="649"/>
      <point x="228" y="670"/>
      <point x="211" y="670" type="qcurve" smooth="yes"/>
      <point x="204" y="670"/>
      <point x="152" y="671"/>
      <point x="104" y="672"/>
      <point x="101" y="672" type="qcurve"/>
      <point x="101" y="695" type="line"/>
      <point x="238" y="695"/>
      <point x="524" y="696"/>
      <point x="666" y="697" type="qcurve"/>
      <point x="666" y="694"/>
      <point x="667" y="683"/>
      <point x="667" y="673" type="qcurve"/>
      <point x="644" y="673"/>
      <point x="622" y="674"/>
      <point x="605" y="674" type="qcurve" smooth="yes"/>
      <point x="589" y="674"/>
      <point x="579" y="652"/>
      <point x="579" y="640" type="qcurve" smooth="yes"/>
      <point x="579" y="593"/>
      <point x="582" y="504"/>
      <point x="583" y="455" type="qcurve" smooth="yes"/>
      <point x="591" y="46" type="line" smooth="yes"/>
      <point x="591" y="24"/>
      <point x="615" y="14"/>
      <point x="627" y="14" type="qcurve" smooth="yes"/>
      <point x="643" y="14"/>
      <point x="677" y="15"/>
      <point x="692" y="15" type="qcurve"/>
      <point x="692" y="-5" type="line"/>
      <point x="449" y="-10" type="line"/>
      <point x="449" y="12" type="line"/>
      <point x="456" y="12"/>
      <point x="521" y="11"/>
    </contour>
  </outline>
</glyph>
<glyph name="uni041F" format="1">
  <advance width="699"/>
  <unicode hex="041F"/>
  <outline>
    <contour>
      <point x="20" y="705" type="line"/>
      <point x="176" y="705" type="line"/>
      <point x="673" y="708" type="line"/>
      <point x="673" y="696"/>
      <point x="674" y="684"/>
      <point x="674" y="682" type="qcurve"/>
      <point x="660" y="682"/>
      <point x="619" y="680"/>
      <point x="605" y="680" type="qcurve" smooth="yes"/>
      <point x="593" y="680"/>
      <point x="577" y="675"/>
      <point x="577" y="660" type="qcurve" smooth="yes"/>
      <point x="579" y="478"/>
      <point x="581" y="256"/>
      <point x="585" y="109"/>
      <point x="587" y="40" type="qcurve"/>
      <point x="584" y="20"/>
      <point x="609" y="20" type="qcurve" smooth="yes"/>
      <point x="677" y="20" type="line"/>
      <point x="679" y="0" type="line"/>
      <point x="457" y="0" type="line"/>
      <point x="457" y="18" type="line"/>
      <point x="475" y="18"/>
      <point x="532" y="20"/>
      <point x="532" y="20" type="qcurve"/>
      <point x="562" y="20"/>
      <point x="562" y="43" type="qcurve" smooth="yes"/>
      <point x="558" y="204"/>
      <point x="553" y="522"/>
      <point x="549" y="683" type="qcurve"/>
      <point x="546" y="683"/>
      <point x="468" y="682"/>
      <point x="357" y="681"/>
      <point x="245" y="681"/>
      <point x="165" y="680"/>
      <point x="160" y="679" type="qcurve"/>
      <point x="157" y="47" type="line"/>
      <point x="157" y="17"/>
      <point x="180" y="17" type="qcurve" smooth="yes"/>
      <point x="194" y="17"/>
      <point x="247" y="16"/>
      <point x="265" y="16" type="qcurve"/>
      <point x="264" y="-2" type="line"/>
      <point x="254" y="-3"/>
      <point x="162" y="-4"/>
      <point x="116" y="-4" type="qcurve" smooth="yes"/>
      <point x="93" y="-4"/>
      <point x="54" y="-4"/>
      <point x="42" y="-3" type="qcurve"/>
      <point x="42" y="17" type="line"/>
      <point x="96" y="17" type="line" smooth="yes"/>
      <point x="132" y="17"/>
      <point x="132" y="47" type="qcurve" smooth="yes"/>
      <point x="132" y="648" type="line" smooth="yes"/>
      <point x="132" y="680"/>
      <point x="100" y="680" type="qcurve"/>
      <point x="100" y="680"/>
      <point x="32" y="681"/>
      <point x="21" y="681" type="qcurve"/>
      <point x="21" y="683"/>
      <point x="20" y="690"/>
      <point x="20" y="693" type="qcurve" smooth="yes"/>
    </contour>
  </outline>
</glyph>
<glyph name="uni0422" format="1">
  <advance width="609"/>
  <unicode hex="0422"/>
  <outline>
    <contour>
      <point x="82" y="690" type="qcurve" smooth="yes"/>
      <point x="67" y="690"/>
      <point x="46" y="675"/>
      <point x="46" y="640" type="qcurve"/>
      <point x="42" y="525" type="line"/>
      <point x="20" y="524" type="line"/>
      <point x="21" y="572"/>
      <point x="22" y="667"/>
      <point x="22" y="715" type="qcurve"/>
      <point x="22" y="715"/>
      <point x="137" y="714"/>
      <point x="307" y="713"/>
      <point x="476" y="711"/>
      <point x="589" y="710"/>
      <point x="588" y="710" type="qcurve"/>
      <point x="588" y="662"/>
      <point x="589" y="567"/>
      <point x="589" y="519" type="qcurve"/>
      <point x="586" y="519"/>
      <point x="572" y="519"/>
      <point x="569" y="520" type="qcurve"/>
      <point x="567" y="640" type="line" smooth="yes"/>
      <point x="566" y="670"/>
      <point x="552" y="690"/>
      <point x="515" y="690" type="qcurve" smooth="yes"/>
      <point x="506" y="690"/>
      <point x="445" y="690"/>
      <point x="385" y="689"/>
      <point x="376" y="689" type="qcurve" smooth="yes"/>
      <point x="361" y="689"/>
      <point x="335" y="690"/>
      <point x="320" y="690" type="qcurve"/>
      <point x="322" y="54" type="line" smooth="yes"/>
      <point x="322" y="20"/>
      <point x="358" y="20" type="qcurve" smooth="yes"/>
      <point x="367" y="20"/>
      <point x="427" y="19"/>
      <point x="435" y="19" type="qcurve"/>
      <point x="435" y="0" type="line"/>
      <point x="431" y="0"/>
      <point x="365" y="-1"/>
      <point x="277" y="-1"/>
      <point x="201" y="-2"/>
      <point x="189" y="-2" type="qcurve"/>
      <point x="189" y="-1"/>
      <point x="188" y="7"/>
      <point x="188" y="9" type="qcurve" smooth="yes"/>
      <point x="188" y="18" type="line"/>
      <point x="202" y="18"/>
      <point x="245" y="20"/>
      <point x="252" y="20" type="qcurve" smooth="yes"/>
      <point x="292" y="20"/>
      <point x="292" y="50" type="qcurve" smooth="yes"/>
      <point x="290" y="216"/>
      <point x="290" y="523"/>
      <point x="290" y="689" type="qcurve"/>
      <point x="289" y="689"/>
      <point x="226" y="690"/>
      <point x="146" y="689"/>
      <point x="84" y="690"/>
    </contour>
  </outline>
</glyph>
<glyph name="uni0424" format="1">
  <advance width="780"/>
  <unicode hex="0424"/>
  <outline>
    <contour>
      <point x="373" y="706" type="qcurve" smooth="yes"/>
      <point x="373" y="717"/>
      <point x="366" y="733"/>
      <point x="343" y="733" type="qcurve" smooth="yes"/>
      <point x="335" y="733"/>
      <point x="257" y="734"/>
      <point x="251" y="734" type="qcurve"/>
      <point x="249" y="755" type="line"/>
      <point x="315" y="756"/>
      <point x="455" y="758"/>
      <point x="520" y="758" type="qcurve"/>
      <point x="520" y="756"/>
      <point x="520" y="744"/>
      <point x="519" y="736" type="qcurve"/>
      <point x="505" y="736"/>
      <point x="447" y="736"/>
      <point x="429" y="734" type="qcurve"/>
      <point x="410" y="733"/>
      <point x="406" y="717"/>
      <point x="406" y="707" type="qcurve" smooth="yes"/>
      <point x="407" y="633" type="line"/>
      <point x="425" y="633" type="line" smooth="yes"/>
      <point x="505" y="633"/>
      <point x="654" y="579"/>
      <point x="750" y="457"/>
      <point x="750" y="355" type="qcurve" smooth="yes"/>
      <point x="750" y="221"/>
      <point x="566" y="77"/>
      <point x="426" y="77" type="qcurve" smooth="yes"/>
      <point x="407" y="77" type="line"/>
      <point x="407" y="8" type="line" smooth="yes"/>
      <point x="407" y="-14"/>
      <point x="439" y="-15" type="qcurve" smooth="yes"/>
      <point x="483" y="-17"/>
      <point x="517" y="-17" type="qcurve"/>
      <point x="517" y="-22"/>
      <point x="516" y="-34"/>
      <point x="516" y="-39" type="qcurve"/>
      <point x="442" y="-39"/>
      <point x="339" y="-38"/>
      <point x="266" y="-36" type="qcurve"/>
      <point x="266" y="-15" type="line"/>
      <point x="346" y="-15" type="line" smooth="yes"/>
      <point x="376" y="-15"/>
      <point x="376" y="6" type="qcurve" smooth="yes"/>
      <point x="377" y="75" type="line"/>
      <point x="364" y="75" type="line" smooth="yes"/>
      <point x="295" y="75"/>
      <point x="139" y="124"/>
      <point x="30" y="241"/>
      <point x="30" y="343" type="qcurve" smooth="yes"/>
      <point x="30" y="627"/>
      <point x="374" y="633" type="qcurve"/>
      <point x="374" y="656"/>
      <point x="373" y="684"/>
    </contour>
    <contour>
      <point x="720" y="352" type="qcurve" smooth="yes"/>
      <point x="718" y="456"/>
      <point x="619" y="568"/>
      <point x="485" y="611"/>
      <point x="430" y="611" type="qcurve" smooth="yes"/>
      <point x="414" y="611"/>
      <point x="407" y="610" type="qcurve"/>
      <point x="406" y="582"/>
      <point x="405" y="489"/>
      <point x="405" y="433" type="qcurve" smooth="yes"/>
      <point x="405" y="374"/>
      <point x="406" y="251"/>
      <point x="406" y="196" type="qcurve" smooth="yes"/>
      <point x="406" y="168"/>
      <point x="406" y="119"/>
      <point x="405" y="97" type="qcurve"/>
      <point x="419" y="97" type="line" smooth="yes"/>
      <point x="487" y="97"/>
      <point x="626" y="146"/>
      <point x="720" y="258"/>
    </contour>
    <contour>
      <point x="57" y="345" type="qcurve" smooth="yes"/>
      <point x="58" y="270"/>
      <point x="127" y="171"/>
      <point x="230" y="115"/>
      <point x="338" y="93"/>
      <point x="377" y="95" type="qcurve"/>
      <point x="377" y="114" type="line" smooth="yes"/>
      <point x="377" y="155"/>
      <point x="376" y="239"/>
      <point x="376" y="280" type="qcurve" smooth="yes"/>
      <point x="373" y="610" type="line"/>
      <point x="293" y="609"/>
      <point x="148" y="557"/>
      <point x="57" y="442"/>
    </contour>
  </outline>
</glyph>
<glyph name="uni0425" format="1">
  <advance width="666"/>
  <unicode hex="0425"/>
  <outline>
    <contour>
      <point x="431" y="714" type="qcurve"/>
      <point x="479" y="714" type="line" smooth="yes"/>
      <point x="512" y="714"/>
      <point x="594" y="712"/>
      <point x="655" y="711"/>
      <point x="655" y="711" type="qcurve"/>
      <point x="655" y="690" type="line"/>
      <point x="616" y="690" type="line" smooth="yes"/>
      <point x="604" y="690"/>
      <point x="565" y="691"/>
      <point x="553" y="668" type="qcurve"/>
      <point x="497" y="584"/>
      <point x="397" y="433"/>
      <point x="341" y="349" type="qcurve"/>
      <point x="402" y="259" type="line"/>
      <point x="566" y="26" type="line" smooth="yes"/>
      <point x="572" y="18"/>
      <point x="609" y="17"/>
      <point x="624" y="17" type="qcurve" smooth="yes"/>
      <point x="666" y="17" type="line"/>
      <point x="666" y="17"/>
      <point x="662" y="-2"/>
      <point x="662" y="-3" type="qcurve"/>
      <point x="634" y="-3"/>
      <point x="577" y="-4"/>
      <point x="549" y="-4" type="qcurve" smooth="yes"/>
      <point x="423" y="-4" type="line"/>
      <point x="423" y="16" type="line"/>
      <point x="477" y="16" type="line" smooth="yes"/>
      <point x="527" y="16"/>
      <point x="525" y="31"/>
      <point x="502" y="67" type="qcurve" smooth="yes"/>
      <point x="322" y="327" type="line"/>
      <point x="321" y="326"/>
      <point x="268" y="241"/>
      <point x="199" y="130"/>
      <point x="146" y="46"/>
      <point x="146" y="46" type="qcurve"/>
      <point x="125" y="14"/>
      <point x="169" y="14" type="qcurve" smooth="yes"/>
      <point x="177" y="14"/>
      <point x="223" y="15"/>
      <point x="230" y="15" type="qcurve"/>
      <point x="232" y="-6" type="line"/>
      <point x="219" y="-6"/>
      <point x="192" y="-5"/>
      <point x="178" y="-5" type="qcurve" smooth="yes"/>
      <point x="8" y="-3" type="line"/>
      <point x="8" y="4" type="line" smooth="yes"/>
      <point x="8" y="6"/>
      <point x="9" y="13"/>
      <point x="9" y="14" type="qcurve"/>
      <point x="69" y="14" type="line" smooth="yes"/>
      <point x="87" y="14"/>
      <point x="105" y="28"/>
      <point x="112" y="40" type="qcurve" smooth="yes"/>
      <point x="306" y="345" type="line"/>
      <point x="302" y="349"/>
      <point x="243" y="445"/>
      <point x="167" y="569"/>
      <point x="106" y="669"/>
      <point x="99" y="676" type="qcurve"/>
      <point x="84" y="697"/>
      <point x="23" y="694"/>
      <point x="0" y="695" type="qcurve"/>
      <point x="0" y="716" type="line"/>
      <point x="11" y="716"/>
      <point x="32" y="717"/>
      <point x="42" y="717" type="qcurve" smooth="yes"/>
      <point x="93" y="717"/>
      <point x="184" y="712"/>
      <point x="230" y="712" type="qcurve"/>
      <point x="230" y="692" type="line"/>
      <point x="181" y="692" type="line" smooth="yes"/>
      <point x="167" y="692"/>
      <point x="130" y="684"/>
      <point x="139" y="665" type="qcurve"/>
      <point x="143" y="658"/>
      <point x="199" y="568"/>
      <point x="270" y="456"/>
      <point x="323" y="372"/>
      <point x="324" y="371" type="qcurve"/>
      <point x="443" y="550" type="line" smooth="yes"/>
      <point x="472" y="594"/>
      <point x="503" y="635"/>
      <point x="521" y="664" type="qcurve"/>
      <point x="530" y="683"/>
      <point x="498" y="694"/>
      <point x="449" y="693"/>
      <point x="432" y="693" type="qcurve"/>
      <point x="432" y="698"/>
      <point x="431" y="709"/>
    </contour>
  </outline>
</glyph>
<glyph name="uni0426" format="1">
  <advance width="679"/>
  <unicode hex="0426"/>
  <outline>
    <contour>
      <point x="584" y="20" type="qcurve" smooth="yes"/>
      <point x="649" y="20" type="line"/>
      <point x="649" y="-164" type="line"/>
      <point x="645" y="-164"/>
      <point x="631" y="-164"/>
      <point x="628" y="-163" type="qcurve"/>
      <point x="623" y="-34" type="line" smooth="yes"/>
      <point x="622" y="-16"/>
      <point x="598" y="-5"/>
      <point x="581" y="-5" type="qcurve" smooth="yes"/>
      <point x="545" y="-4" type="line"/>
      <point x="174" y="-1" type="line" smooth="yes"/>
      <point x="137" y="-1"/>
      <point x="60" y="0"/>
      <point x="22" y="0" type="qcurve"/>
      <point x="22" y="5"/>
      <point x="23" y="16"/>
      <point x="23" y="22" type="qcurve"/>
      <point x="85" y="22" type="line" smooth="yes"/>
      <point x="120" y="22"/>
      <point x="120" y="50" type="qcurve" smooth="yes"/>
      <point x="119" y="241" type="line"/>
      <point x="115" y="657" type="line" smooth="yes"/>
      <point x="115" y="668"/>
      <point x="109" y="682"/>
      <point x="86" y="682" type="qcurve" smooth="yes"/>
      <point x="20" y="682" type="line"/>
      <point x="22" y="706" type="line"/>
      <point x="32" y="706"/>
      <point x="69" y="707"/>
      <point x="90" y="707" type="qcurve" smooth="yes"/>
      <point x="140" y="707"/>
      <point x="239" y="705"/>
      <point x="249" y="705" type="qcurve"/>
      <point x="250" y="704"/>
      <point x="250" y="685"/>
      <point x="251" y="683" type="qcurve"/>
      <point x="175" y="683" type="line" smooth="yes"/>
      <point x="143" y="683"/>
      <point x="143" y="660" type="qcurve" smooth="yes"/>
      <point x="151" y="23" type="line"/>
      <point x="163" y="22"/>
      <point x="282" y="21"/>
      <point x="425" y="20"/>
      <point x="531" y="20"/>
      <point x="530" y="19" type="qcurve"/>
      <point x="527" y="535" type="line" smooth="yes"/>
      <point x="527" y="569"/>
      <point x="525" y="623"/>
      <point x="526" y="657" type="qcurve"/>
      <point x="525" y="680"/>
      <point x="501" y="680" type="qcurve" smooth="yes"/>
      <point x="420" y="682" type="line"/>
      <point x="420" y="704" type="line"/>
      <point x="441" y="704"/>
      <point x="486" y="703"/>
      <point x="508" y="703" type="qcurve" smooth="yes"/>
      <point x="648" y="703" type="line"/>
      <point x="646" y="680" type="line"/>
      <point x="579" y="680" type="line" smooth="yes"/>
      <point x="556" y="680"/>
      <point x="556" y="657" type="qcurve" smooth="yes"/>
      <point x="556" y="607" type="line" smooth="yes"/>
      <point x="556" y="555"/>
      <point x="556" y="382"/>
      <point x="555" y="199"/>
      <point x="555" y="59"/>
      <point x="555" y="40" type="qcurve" smooth="yes"/>
      <point x="555" y="20"/>
    </contour>
  </outline>
</glyph>
<glyph name="uni0439" format="1">
  <advance width="712"/>
  <unicode hex="0439"/>
  <outline>
    <contour>
      <point x="362" y="840" type="qcurve" smooth="yes"/>
      <point x="306" y="840"/>
      <point x="253" y="896"/>
      <point x="244" y="916" type="qcurve" smooth="yes"/>
      <point x="234" y="939"/>
      <point x="233" y="959"/>
      <point x="234" y="966" type="qcurve" smooth="yes"/>
      <point x="236" y="987"/>
      <point x="280" y="998"/>
      <point x="286" y="973" type="qcurve"/>
      <point x="289" y="957"/>
      <point x="272" y="941" type="qcurve"/>
      <point x="260" y="931"/>
      <point x="308" y="859"/>
      <point x="369" y="859" type="qcurve" smooth="yes"/>
      <point x="412" y="859"/>
      <point x="463" y="909"/>
      <point x="487" y="960"/>
      <point x="487" y="959" type="qcurve"/>
      <point x="505" y="959" type="line"/>
      <point x="505" y="959"/>
      <point x="482" y="900"/>
      <point x="420" y="841"/>
    </contour>
    <contour>
      <point x="258" y="22" type="qcurve"/>
      <point x="258" y="-2" type="line"/>
      <point x="242" y="-2"/>
      <point x="209" y="-1"/>
      <point x="194" y="-1" type="qcurve" smooth="yes"/>
      <point x="116" y="-1" type="line" smooth="yes"/>
      <point x="105" y="-1"/>
      <point x="82" y="0"/>
      <point x="71" y="0" type="qcurve" smooth="yes"/>
      <point x="20" y="0" type="line"/>
      <point x="20" y="23" type="line"/>
      <point x="32" y="23"/>
      <point x="55" y="22"/>
      <point x="67" y="22" type="qcurve" smooth="yes"/>
      <point x="106" y="22"/>
      <point x="120" y="34"/>
      <point x="120" y="77" type="qcurve" smooth="yes"/>
      <point x="120" y="86" type="line" smooth="yes"/>
      <point x="123" y="237"/>
      <point x="126" y="499"/>
      <point x="128" y="650" type="qcurve" smooth="yes"/>
      <point x="128" y="655"/>
      <point x="118" y="680"/>
      <point x="92" y="680" type="qcurve" smooth="yes"/>
      <point x="70" y="680"/>
      <point x="25" y="679"/>
      <point x="25" y="679" type="qcurve"/>
      <point x="25" y="702" type="line"/>
      <point x="256" y="700" type="line"/>
      <point x="256" y="694"/>
      <point x="255" y="682"/>
      <point x="255" y="677" type="qcurve"/>
      <point x="192" y="677" type="line" smooth="yes"/>
      <point x="158" y="677"/>
      <point x="158" y="653" type="qcurve"/>
      <point x="154" y="357" type="line" smooth="yes"/>
      <point x="153" y="281"/>
      <point x="150" y="130"/>
      <point x="149" y="54" type="qcurve"/>
      <point x="541" y="651" type="line" smooth="yes"/>
      <point x="554" y="671"/>
      <point x="541" y="678"/>
      <point x="522" y="678" type="qcurve" smooth="yes"/>
      <point x="456" y="677" type="line"/>
      <point x="456" y="700" type="line"/>
      <point x="632" y="700" type="line" smooth="yes"/>
      <point x="646" y="700"/>
      <point x="678" y="701"/>
      <point x="692" y="701" type="qcurve"/>
      <point x="692" y="677" type="line"/>
      <point x="647" y="677" type="line" smooth="yes"/>
      <point x="609" y="677"/>
      <point x="599" y="662"/>
      <point x="598" y="609" type="qcurve" smooth="yes"/>
      <point x="596" y="530"/>
      <point x="591" y="366"/>
      <point x="590" y="288" type="qcurve" smooth="yes"/>
      <point x="588" y="60" type="line"/>
      <point x="588" y="35"/>
      <point x="604" y="25"/>
      <point x="622" y="23" type="qcurve"/>
      <point x="625" y="23"/>
      <point x="665" y="22"/>
      <point x="681" y="22" type="qcurve"/>
      <point x="681" y="1" type="line"/>
      <point x="452" y="-1" type="line"/>
      <point x="452" y="1"/>
      <point x="453" y="5"/>
      <point x="453" y="9" type="qcurve" smooth="yes"/>
      <point x="453" y="22" type="line"/>
      <point x="454" y="22"/>
      <point x="507" y="23"/>
      <point x="529" y="23" type="qcurve" smooth="yes"/>
      <point x="558" y="23"/>
      <point x="558" y="60" type="qcurve" smooth="yes"/>
      <point x="558" y="82"/>
      <point x="560" y="215"/>
      <point x="564" y="386"/>
      <point x="568" y="548"/>
      <point x="570" y="655"/>
      <point x="570" y="655" type="qcurve"/>
      <point x="469" y="500"/>
      <point x="273" y="200"/>
      <point x="172" y="44" type="qcurve"/>
      <point x="166" y="26"/>
      <point x="189" y="23"/>
      <point x="192" y="23" type="qcurve" smooth="yes"/>
      <point x="207" y="23"/>
      <point x="244" y="22"/>
    </contour>
  </outline>
</glyph>
<glyph name="uni043A" format="1">
  <advance width="652"/>
  <unicode hex="043A"/>
  <outline>
    <contour>
      <point x="502" y="670" type="qcurve"/>
      <point x="502" y="674"/>
      <point x="500" y="680"/>
      <point x="477" y="680" type="qcurve" smooth="yes"/>
      <point x="462" y="680"/>
      <point x="429" y="681"/>
      <point x="414" y="681" type="qcurve"/>
      <point x="414" y="703" type="line"/>
      <point x="416" y="703"/>
      <point x="478" y="703"/>
      <point x="562" y="703"/>
      <point x="634" y="702"/>
      <point x="646" y="701" type="qcurve"/>
      <point x="646" y="681" type="line"/>
      <point x="564" y="681" type="line"/>
      <point x="527" y="659"/>
      <point x="473" y="601"/>
      <point x="444" y="571" type="qcurve" smooth="yes"/>
      <point x="264" y="379" type="line"/>
      <point x="300" y="377"/>
      <point x="402" y="362"/>
      <point x="495" y="311"/>
      <point x="517" y="253" type="qcurve" smooth="yes"/>
      <point x="541" y="191"/>
      <point x="546" y="66"/>
      <point x="573" y="-17"/>
      <point x="629" y="-17" type="qcurve" smooth="yes"/>
      <point x="652" y="-17"/>
      <point x="671" y="1"/>
      <point x="673" y="3" type="qcurve"/>
      <point x="682" y="-15" type="line"/>
      <point x="681" y="-17"/>
      <point x="654" y="-41"/>
      <point x="622" y="-41" type="qcurve" smooth="yes"/>
      <point x="563" y="-41"/>
      <point x="523" y="47"/>
      <point x="510" y="176"/>
      <point x="488" y="236" type="qcurve" smooth="yes"/>
      <point x="469" y="284"/>
      <point x="381" y="336"/>
      <point x="286" y="355"/>
      <point x="255" y="355" type="qcurve" smooth="yes"/>
      <point x="235" y="355" type="line"/>
      <point x="235" y="362"/>
      <point x="234" y="374"/>
      <point x="234" y="381" type="qcurve" smooth="yes"/>
      <point x="234" y="382"/>
      <point x="289" y="441"/>
      <point x="368" y="527"/>
      <point x="448" y="612"/>
      <point x="502" y="670"/>
    </contour>
    <contour>
      <point x="133" y="657" type="qcurve" smooth="yes"/>
      <point x="133" y="693"/>
      <point x="90" y="690" type="qcurve" smooth="yes"/>
      <point x="73" y="689"/>
      <point x="36" y="690"/>
      <point x="20" y="690" type="qcurve"/>
      <point x="20" y="690"/>
      <point x="21" y="702"/>
      <point x="21" y="711" type="qcurve"/>
      <point x="272" y="711" type="line"/>
      <point x="272" y="692" type="line"/>
      <point x="204" y="689" type="line"/>
      <point x="188" y="690"/>
      <point x="160" y="678"/>
      <point x="162" y="660" type="qcurve"/>
      <point x="163" y="550"/>
      <point x="161" y="366"/>
      <point x="161" y="182"/>
      <point x="162" y="70" type="qcurve" smooth="yes"/>
      <point x="162" y="55"/>
      <point x="181" y="32"/>
      <point x="209" y="31" type="qcurve" smooth="yes"/>
      <point x="223" y="30"/>
      <point x="253" y="31"/>
      <point x="268" y="30" type="qcurve"/>
      <point x="268" y="9" type="line"/>
      <point x="50" y="9" type="line"/>
      <point x="48" y="19"/>
      <point x="48" y="30" type="qcurve"/>
      <point x="102" y="30" type="line" smooth="yes"/>
      <point x="115" y="30"/>
      <point x="136" y="50"/>
      <point x="135" y="67" type="qcurve" smooth="yes"/>
      <point x="133" y="232"/>
      <point x="135" y="499"/>
    </contour>
  </outline>
</glyph>
<glyph name="uni043D" format="1">
  <advance width="712"/>
  <unicode hex="043D"/>
  <outline>
    <contour>
      <point x="262" y="-2" type="line"/>
      <point x="252" y="-2"/>
      <point x="160" y="-3"/>
      <point x="114" y="-3" type="qcurve" smooth="yes"/>
      <point x="91" y="-3"/>
      <point x="49" y="-3"/>
      <point x="38" y="-2" type="qcurve"/>
      <point x="39" y="19" type="line"/>
      <point x="108" y="17" type="line" smooth="yes"/>
      <point x="139" y="17"/>
      <point x="137" y="40" type="qcurve"/>
      <point x="138" y="40"/>
      <point x="136" y="147"/>
      <point x="136" y="209" type="qcurve" smooth="yes"/>
      <point x="136" y="309"/>
      <point x="132" y="512"/>
      <point x="128" y="654"/>
      <point x="128" y="660" type="qcurve" smooth="yes"/>
      <point x="128" y="668"/>
      <point x="116" y="680"/>
      <point x="90" y="680" type="qcurve" smooth="yes"/>
      <point x="21" y="680" type="line"/>
      <point x="20" y="705" type="line"/>
      <point x="282" y="707" type="line"/>
      <point x="281" y="703"/>
      <point x="281" y="688"/>
      <point x="281" y="684" type="qcurve"/>
      <point x="280" y="684"/>
      <point x="214" y="680"/>
      <point x="188" y="680" type="qcurve" smooth="yes"/>
      <point x="169" y="680"/>
      <point x="160" y="668"/>
      <point x="160" y="660" type="qcurve"/>
      <point x="160" y="660"/>
      <point x="160" y="576"/>
      <point x="162" y="464"/>
      <point x="164" y="372"/>
      <point x="165" y="363" type="qcurve"/>
      <point x="467" y="363" type="line" smooth="yes"/>
      <point x="505" y="363"/>
      <point x="558" y="363"/>
      <point x="563" y="364" type="qcurve"/>
      <point x="563" y="411" type="line" smooth="yes"/>
      <point x="563" y="453"/>
      <point x="563" y="563"/>
      <point x="563" y="654"/>
      <point x="562" y="666" type="qcurve" smooth="yes"/>
      <point x="560" y="687"/>
      <point x="533" y="687" type="qcurve" smooth="yes"/>
      <point x="452" y="690" type="line"/>
      <point x="452" y="711" type="line"/>
      <point x="685" y="708" type="line"/>
      <point x="685" y="703"/>
      <point x="686" y="694"/>
      <point x="686" y="688" type="qcurve"/>
      <point x="616" y="687" type="line" smooth="yes"/>
      <point x="588" y="687"/>
      <point x="588" y="667" type="qcurve"/>
      <point x="587" y="667"/>
      <point x="587" y="625"/>
      <point x="587" y="602" type="qcurve" smooth="yes"/>
      <point x="587" y="538"/>
      <point x="591" y="403"/>
      <point x="592" y="335" type="qcurve" smooth="yes"/>
      <point x="594" y="201" type="line"/>
      <point x="598" y="46" type="line" smooth="yes"/>
      <point x="599" y="30"/>
      <point x="618" y="23"/>
      <point x="628" y="24" type="qcurve"/>
      <point x="691" y="24" type="line"/>
      <point x="691" y="21"/>
      <point x="691" y="5"/>
      <point x="692" y="0" type="qcurve"/>
      <point x="467" y="0" type="line"/>
      <point x="467" y="20" type="line"/>
      <point x="484" y="20"/>
      <point x="524" y="20"/>
      <point x="540" y="21" type="qcurve" smooth="yes"/>
      <point x="561" y="22"/>
      <point x="568" y="43"/>
      <point x="568" y="50" type="qcurve" smooth="yes"/>
      <point x="565" y="340" type="line"/>
      <point x="564" y="340"/>
      <point x="485" y="340"/>
      <point x="369" y="339"/>
      <point x="252" y="339"/>
      <point x="169" y="338"/>
      <point x="164" y="337" type="qcurve"/>
      <point x="164" y="336"/>
      <point x="163" y="260"/>
      <point x="163" y="154"/>
      <point x="163" y="60"/>
      <point x="163" y="41" type="qcurve" smooth="yes"/>
      <point x="163" y="25"/>
      <point x="172" y="20"/>
      <point x="182" y="20" type="qcurve" smooth="yes"/>
      <point x="205" y="20"/>
      <point x="242" y="18"/>
      <point x="264" y="18" type="qcurve"/>
    </contour>
  </outline>
</glyph>
<glyph name="uni0443" format="1">
  <advance width="640"/>
  <unicode hex="0443"/>
  <outline>
    <contour>
      <point x="86" y="667" type="qcurve"/>
      <point x="80" y="683"/>
      <point x="47" y="683" type="qcurve" smooth="yes"/>
      <point x="31" y="683"/>
      <point x="-4" y="684"/>
      <point x="-20" y="684" type="qcurve"/>
      <point x="-20" y="706" type="line"/>
      <point x="-1" y="706"/>
      <point x="40" y="705"/>
      <point x="61" y="705" type="qcurve" smooth="yes"/>
      <point x="103" y="705"/>
      <point x="190" y="706"/>
      <point x="228" y="706" type="qcurve"/>
      <point x="228" y="706"/>
      <point x="227" y="685"/>
      <point x="227" y="682" type="qcurve"/>
      <point x="211" y="682"/>
      <point x="164" y="682"/>
      <point x="142" y="680" type="qcurve" smooth="yes"/>
      <point x="119" y="678"/>
      <point x="119" y="664" type="qcurve"/>
      <point x="119" y="664"/>
      <point x="142" y="579"/>
      <point x="177" y="455"/>
      <point x="211" y="331"/>
      <point x="234" y="247"/>
      <point x="234" y="247" type="qcurve"/>
      <point x="238" y="247"/>
      <point x="324" y="247"/>
      <point x="411" y="247"/>
      <point x="416" y="246" type="qcurve"/>
      <point x="460" y="375"/>
      <point x="519" y="566"/>
      <point x="543" y="657" type="qcurve" smooth="yes"/>
      <point x="549" y="676"/>
      <point x="530" y="685"/>
      <point x="513" y="685" type="qcurve" smooth="yes"/>
      <point x="492" y="685" type="line" smooth="yes"/>
      <point x="480" y="685"/>
      <point x="455" y="686"/>
      <point x="443" y="686" type="qcurve"/>
      <point x="443" y="691"/>
      <point x="442" y="702"/>
      <point x="442" y="707" type="qcurve"/>
      <point x="504" y="707" type="line" smooth="yes"/>
      <point x="529" y="707"/>
      <point x="579" y="708"/>
      <point x="604" y="708" type="qcurve" smooth="yes"/>
      <point x="660" y="708" type="line"/>
      <point x="660" y="706"/>
      <point x="659" y="693"/>
      <point x="659" y="690" type="qcurve"/>
      <point x="596" y="687" type="line"/>
      <point x="584" y="688"/>
      <point x="577" y="670"/>
      <point x="573" y="660" type="qcurve"/>
      <point x="551" y="581" type="line" smooth="yes"/>
      <point x="475" y="319"/>
      <point x="346" y="17"/>
      <point x="305" y="-30" type="qcurve"/>
      <point x="283" y="-61"/>
      <point x="254" y="-59" type="qcurve" smooth="yes"/>
      <point x="243" y="-58"/>
      <point x="223" y="-47"/>
      <point x="223" y="-32" type="qcurve" smooth="yes"/>
      <point x="223" y="-8"/>
      <point x="247" y="-8" type="qcurve" smooth="yes"/>
      <point x="260" y="-8"/>
      <point x="273" y="-24"/>
      <point x="274" y="-27" type="qcurve"/>
      <point x="302" y="0"/>
      <point x="356" y="97"/>
      <point x="398" y="193"/>
      <point x="406" y="220" type="qcurve"/>
      <point x="357" y="220"/>
      <point x="260" y="221"/>
      <point x="211" y="221" type="qcurve"/>
      <point x="211" y="221"/>
      <point x="186" y="310"/>
      <point x="150" y="441"/>
      <point x="113" y="573"/>
      <point x="87" y="665"/>
    </contour>
  </outline>
</glyph>
<glyph name="uni044C" format="1">
  <advance width="593"/>
  <unicode hex="044C"/>
  <outline>
    <contour>
      <point x="147" y="25" type="line"/>
      <point x="309" y="25" type="line" smooth="yes"/>
      <point x="418" y="25"/>
      <point x="512" y="105"/>
      <point x="535" y="204"/>
      <point x="535" y="233" type="qcurve" smooth="yes"/>
      <point x="535" y="323"/>
      <point x="421" y="431"/>
      <point x="325" y="432" type="qcurve" smooth="yes"/>
      <point x="147" y="434" type="line"/>
    </contour>
    <contour>
      <point x="314" y="2" type="qcurve" smooth="yes"/>
      <point x="263" y="2"/>
      <point x="155" y="4"/>
      <point x="102" y="4" type="qcurve" smooth="yes"/>
      <point x="30" y="4" type="line"/>
      <point x="29" y="25" type="line"/>
      <point x="88" y="24" type="line" smooth="yes"/>
      <point x="115" y="24"/>
      <point x="115" y="60" type="qcurve" smooth="yes"/>
      <point x="117" y="670" type="line" smooth="yes"/>
      <point x="116" y="693"/>
      <point x="87" y="693" type="qcurve" smooth="yes"/>
      <point x="20" y="693" type="line"/>
      <point x="20" y="713" type="line"/>
      <point x="133" y="713" type="line" smooth="yes"/>
      <point x="173" y="713"/>
      <point x="248" y="714"/>
      <point x="249" y="714" type="qcurve"/>
      <point x="249" y="690" type="line"/>
      <point x="175" y="690" type="line" smooth="yes"/>
      <point x="145" y="690"/>
      <point x="147" y="670" type="qcurve"/>
      <point x="147" y="457" type="line"/>
      <point x="213" y="455"/>
      <point x="358" y="453"/>
      <point x="484" y="421"/>
      <point x="563" y="332"/>
      <point x="563" y="243" type="qcurve" smooth="yes"/>
      <point x="563" y="221" type="line" smooth="yes"/>
      <point x="563" y="182"/>
      <point x="529" y="79"/>
      <point x="423" y="2"/>
    </contour>
  </outline>
</glyph>
<glyph name="uni044D" format="1">
  <advance width="577"/>
  <unicode hex="044D"/>
  <outline>
    <contour>
      <point x="223" y="2" type="qcurve" smooth="yes"/>
      <point x="234" y="2" type="line" smooth="yes"/>
      <point x="322" y="2"/>
      <point x="438" y="98"/>
      <point x="500" y="247"/>
      <point x="505" y="328" type="qcurve"/>
      <point x="507" y="340"/>
      <point x="507" y="345" type="qcurve"/>
      <point x="491" y="345"/>
      <point x="412" y="344"/>
      <point x="324" y="342"/>
      <point x="296" y="342" type="qcurve" smooth="yes"/>
      <point x="264" y="342"/>
      <point x="263" y="320" type="qcurve"/>
      <point x="263" y="320"/>
      <point x="261" y="270"/>
      <point x="260" y="246" type="qcurve"/>
      <point x="239" y="246" type="line"/>
      <point x="239" y="307"/>
      <point x="242" y="431"/>
      <point x="242" y="483" type="qcurve"/>
      <point x="263" y="484" type="line"/>
      <point x="262" y="394" type="line"/>
      <point x="262" y="367"/>
      <point x="292" y="367" type="qcurve" smooth="yes"/>
      <point x="333" y="367"/>
      <point x="466" y="367"/>
      <point x="506" y="368" type="qcurve"/>
      <point x="506" y="442"/>
      <point x="451" y="601"/>
      <point x="324" y="711"/>
      <point x="215" y="711" type="qcurve" smooth="yes"/>
      <point x="146" y="711"/>
      <point x="60" y="681" type="qcurve"/>
      <point x="57" y="627"/>
      <point x="57" y="567" type="qcurve" smooth="yes"/>
      <point x="57" y="551"/>
      <point x="58" y="514"/>
      <point x="58" y="498" type="qcurve"/>
      <point x="33" y="498" type="line"/>
      <point x="30" y="698" type="line"/>
      <point x="31" y="697"/>
      <point x="138" y="736"/>
      <point x="213" y="736" type="qcurve" smooth="yes"/>
      <point x="364" y="736"/>
      <point x="537" y="522"/>
      <point x="537" y="366" type="qcurve" smooth="yes"/>
      <point x="537" y="231"/>
      <point x="452" y="60"/>
      <point x="317" y="-21"/>
      <point x="241" y="-21" type="qcurve" smooth="yes"/>
      <point x="162" y="-21"/>
      <point x="75" y="21"/>
      <point x="41" y="64"/>
      <point x="40" y="64" type="qcurve"/>
      <point x="54" y="77" type="line"/>
      <point x="54" y="77"/>
      <point x="87" y="42"/>
      <point x="161" y="5"/>
    </contour>
  </outline>
</glyph>
<glyph name="uni0451" format="1">
  <advance width="458"/>
  <unicode hex="0451"/>
  <outline>
    <contour>
      <point x="328" y="655" type="qcurve" smooth="yes"/>
      <point x="347" y="655"/>
      <point x="347" y="634" type="qcurve" smooth="yes"/>
      <point x="347" y="614"/>
      <point x="329" y="612" type="qcurve"/>
      <point x="304" y="612"/>
      <point x="304" y="632" type="qcurve" smooth="yes"/>
      <point x="304" y="655"/>
    </contour>
    <contour>
      <point x="146" y="654" type="qcurve" smooth="yes"/>
      <point x="165" y="654"/>
      <point x="165" y="633" type="qcurve" smooth="yes"/>
      <point x="165" y="611"/>
      <point x="144" y="611" type="qcurve" smooth="yes"/>
      <point x="122" y="611"/>
      <point x="122" y="631" type="qcurve" smooth="yes"/>
      <point x="122" y="654"/>
    </contour>
    <contour>
      <point x="415" y="232" type="qcurve"/>
      <point x="415" y="232"/>
      <point x="329" y="231"/>
      <point x="207" y="231"/>
      <point x="90" y="230"/>
      <point x="58" y="230" type="qcurve"/>
      <point x="58" y="180"/>
      <point x="94" y="70"/>
      <point x="179" y="-8"/>
      <point x="251" y="-9" type="qcurve" smooth="yes"/>
      <point x="318" y="-11"/>
      <point x="381" y="43"/>
      <point x="381" y="44" type="qcurve"/>
      <point x="402" y="31" type="line"/>
      <point x="402" y="31"/>
      <point x="334" y="-34"/>
      <point x="251" y="-35" type="qcurve" smooth="yes"/>
      <point x="154" y="-36"/>
      <point x="28" y="118"/>
      <point x="30" y="234" type="qcurve" smooth="yes"/>
      <point x="30" y="369"/>
      <point x="151" y="502"/>
      <point x="240" y="501" type="qcurve" smooth="yes"/>
      <point x="335" y="500"/>
      <point x="417" y="378"/>
      <point x="417" y="277" type="qcurve" smooth="yes"/>
      <point x="417" y="256"/>
    </contour>
    <contour>
      <point x="240" y="476" type="qcurve" smooth="yes"/>
      <point x="152" y="478"/>
      <point x="59" y="342"/>
      <point x="59" y="256" type="qcurve"/>
      <point x="145" y="256"/>
      <point x="307" y="257"/>
      <point x="392" y="257" type="qcurve"/>
      <point x="392" y="278" type="line" smooth="yes"/>
      <point x="392" y="308"/>
      <point x="373" y="401"/>
      <point x="309" y="475"/>
    </contour>
  </outline>
</glyph>
<glyph name="uni2013" format="1">
  <advance width="525"/>
  <unicode hex="2013"/>
  <outline>
    <contour>
      <point x="495" y="277" type="line"/>
      <point x="30" y="276" type="line"/>
      <point x="30" y="302" type="line"/>
      <point x="42" y="302"/>
      <point x="135" y="302"/>
      <point x="263" y="301"/>
      <point x="390" y="300"/>
      <point x="483" y="300"/>
      <point x="495" y="300" type="qcurve"/>
    </contour>
  </outline>
</glyph>
<glyph name="uni201C" format="1">
  <advance width="272"/>
  <unicode hex="201C"/>
  <outline>
    <contour>
      <point x="188" y="545" type="qcurve"/>
      <point x="173" y="544"/>
      <point x="166" y="567"/>
      <point x="166" y="576" type="qcurve" smooth="yes"/>
      <point x="166" y="628"/>
      <point x="212" y="714"/>
      <point x="210" y="714" type="qcurve"/>
      <point x="222" y="714" type="line"/>
      <point x="222" y="714"/>
      <point x="197" y="646"/>
      <point x="192" y="590" type="qcurve"/>
      <point x="212" y="590"/>
      <point x="212" y="567" type="qcurve" smooth="yes"/>
      <point x="212" y="545"/>
    </contour>
    <contour>
      <point x="71" y="542" type="qcurve" smooth="yes"/>
      <point x="57" y="542"/>
      <point x="50" y="563"/>
      <point x="50" y="572" type="qcurve" smooth="yes"/>
      <point x="50" y="625"/>
      <point x="96" y="711"/>
      <point x="94" y="711" type="qcurve"/>
      <point x="106" y="711" type="line"/>
      <point x="106" y="711"/>
      <point x="81" y="642"/>
      <point x="76" y="586" type="qcurve"/>
      <point x="96" y="586"/>
      <point x="96" y="564" type="qcurve" smooth="yes"/>
      <point x="96" y="542"/>
    </contour>
  </outline>
</glyph>
<glyph name="uni201D" format="1">
  <advance width="273"/>
  <unicode hex="201D"/>
  <outline>
    <contour>
      <point x="201" y="714" type="qcurve" smooth="yes"/>
      <point x="221" y="714"/>
      <point x="223" y="690" type="qcurve"/>
      <point x="222" y="637"/>
      <point x="178" y="545"/>
      <point x="179" y="545" type="qcurve"/>
      <point x="166" y="545" type="line"/>
      <point x="166" y="545"/>
      <point x="193" y="615"/>
      <point x="197" y="670" type="qcurve"/>
      <point x="179" y="670"/>
      <point x="177" y="685" type="qcurve"/>
      <point x="171" y="714"/>
    </contour>
    <contour>
      <point x="85" y="711" type="qcurve" smooth="yes"/>
      <point x="97" y="711"/>
      <point x="106" y="694"/>
      <point x="106" y="686" type="qcurve"/>
      <point x="105" y="633"/>
      <point x="62" y="542"/>
      <point x="62" y="542" type="qcurve"/>
      <point x="50" y="542" type="line"/>
      <point x="50" y="542"/>
      <point x="76" y="611"/>
      <point x="80" y="666" type="qcurve"/>
      <point x="63" y="666"/>
      <point x="61" y="682" type="qcurve"/>
      <point x="59" y="692"/>
      <point x="70" y="711"/>
    </contour>
  </outline>
</glyph>
<glyph name="uni2021" format="1">
  <advance width="475"/>
  <unicode hex="2021"/>
  <outline>
    <contour>
      <point x="248" y="-185" type="line"/>
      <point x="244" y="-185"/>
      <point x="238" y="-186"/>
      <point x="235" y="-186" type="qcurve" smooth="yes"/>
      <point x="220" y="-186" type="line"/>
      <point x="222" y="55" type="line"/>
      <point x="177" y="54"/>
      <point x="85" y="53"/>
      <point x="41" y="53" type="qcurve"/>
      <point x="41" y="58"/>
      <point x="40" y="70"/>
      <point x="40" y="76" type="qcurve"/>
      <point x="44" y="77"/>
      <point x="144" y="77"/>
      <point x="222" y="77" type="qcurve"/>
      <point x="222" y="165"/>
      <point x="225" y="342"/>
      <point x="225" y="430" type="qcurve"/>
      <point x="139" y="430" type="line" smooth="yes"/>
      <point x="117" y="430"/>
      <point x="69" y="431"/>
      <point x="46" y="431" type="qcurve"/>
      <point x="44" y="455" type="line"/>
      <point x="67" y="455"/>
      <point x="115" y="454"/>
      <point x="137" y="454" type="qcurve" smooth="yes"/>
      <point x="224" y="454" type="line"/>
      <point x="224" y="489"/>
      <point x="225" y="560"/>
      <point x="225" y="595" type="qcurve" smooth="yes"/>
      <point x="225" y="705" type="line"/>
      <point x="254" y="704" type="line"/>
      <point x="254" y="668"/>
      <point x="253" y="593"/>
      <point x="253" y="557" type="qcurve" smooth="yes"/>
      <point x="253" y="454" type="line"/>
      <point x="298" y="455"/>
      <point x="390" y="456"/>
      <point x="434" y="456" type="qcurve"/>
      <point x="434" y="451"/>
      <point x="435" y="439"/>
      <point x="435" y="433" type="qcurve"/>
      <point x="435" y="433"/>
      <point x="333" y="432"/>
      <point x="253" y="432" type="qcurve"/>
      <point x="253" y="351"/>
      <point x="252" y="165"/>
      <point x="250" y="79" type="qcurve"/>
      <point x="288" y="79"/>
      <point x="368" y="78"/>
      <point x="429" y="78" type="qcurve"/>
      <point x="431" y="54" type="line"/>
      <point x="334" y="54" type="line" smooth="yes"/>
      <point x="313" y="54"/>
      <point x="272" y="55"/>
      <point x="252" y="55" type="qcurve" smooth="yes"/>
      <point x="250" y="55"/>
      <point x="248" y="-33"/>
      <point x="248" y="-130"/>
      <point x="248" y="-145" type="qcurve" smooth="yes"/>
    </contour>
  </outline>
</glyph>
<glyph name="uni2022" format="1">
  <advance width="235"/>
  <unicode hex="2022"/>
  <outline>
    <contour>
      <point x="120" y="402" type="qcurve" smooth="yes"/>
      <point x="148" y="402"/>
      <point x="175" y="368"/>
      <point x="175" y="346" type="qcurve" smooth="yes"/>
      <point x="175" y="316"/>
      <point x="141" y="286"/>
      <point x="117" y="286" type="qcurve" smooth="yes"/>
      <point x="60" y="286"/>
      <point x="60" y="343" type="qcurve" smooth="yes"/>
      <point x="60" y="366"/>
      <point x="89" y="402"/>
    </contour>
  </outline>
</glyph>
<glyph name="uni2026" format="1">
  <advance width="462"/>
  <unicode hex="2026"/>
  <outline>
    <contour>
      <point x="391" y="40" type="qcurve" smooth="yes"/>
      <point x="412" y="40"/>
      <point x="412" y="19" type="qcurve" smooth="yes"/>
      <point x="412" y="-3"/>
      <point x="389" y="-3" type="qcurve" smooth="yes"/>
      <point x="367" y="-3"/>
      <point x="367" y="17" type="qcurve" smooth="yes"/>
      <point x="367" y="40"/>
    </contour>
    <contour>
      <point x="234" y="39" type="qcurve" smooth="yes"/>
      <point x="254" y="39"/>
      <point x="254" y="18" type="qcurve" smooth="yes"/>
      <point x="254" y="-4"/>
      <point x="233" y="-4" type="qcurve" smooth="yes"/>
      <point x="210" y="-4"/>
      <point x="210" y="16" type="qcurve" smooth="yes"/>
      <point x="210" y="39"/>
    </contour>
    <contour>
      <point x="74" y="38" type="qcurve" smooth="yes"/>
      <point x="95" y="38"/>
      <point x="95" y="17" type="qcurve" smooth="yes"/>
      <point x="95" y="-5"/>
      <point x="72" y="-5" type="qcurve" smooth="yes"/>
      <point x="50" y="-5"/>
      <point x="50" y="15" type="qcurve" smooth="yes"/>
      <point x="50" y="38"/>
    </contour>
  </outline>
</glyph>
<glyph name="uni2030" format="1">
  <advance width="1087"/>
  <unicode hex="2030"/>
  <outline>
    <contour>
      <point x="180" y="710" type="qcurve" smooth="yes"/>
      <point x="253" y="710"/>
      <point x="331" y="606"/>
      <point x="331" y="529" type="qcurve" smooth="yes"/>
      <point x="331" y="456"/>
      <point x="264" y="346"/>
      <point x="184" y="346" type="qcurve" smooth="yes"/>
      <point x="113" y="346"/>
      <point x="30" y="442"/>
      <point x="30" y="527" type="qcurve" smooth="yes"/>
      <point x="30" y="608"/>
      <point x="104" y="710"/>
    </contour>
    <contour>
      <point x="160" y="4" type="line"/>
      <point x="442" y="485" type="line"/>
      <point x="568" y="700" type="line"/>
      <point x="601" y="700" type="line"/>
      <point x="187" y="0" type="line"/>
      <point x="168" y="0" type="line"/>
    </contour>
    <contour>
      <point x="58" y="539" type="qcurve" smooth="yes"/>
      <point x="58" y="515"/>
      <point x="72" y="436"/>
      <point x="126" y="372"/>
      <point x="185" y="370" type="qcurve" smooth="yes"/>
      <point x="247" y="370"/>
      <point x="305" y="463"/>
      <point x="305" y="529" type="qcurve" smooth="yes"/>
      <point x="305" y="615"/>
      <point x="223" y="689"/>
      <point x="180" y="689" type="qcurve" smooth="yes"/>
      <point x="112" y="689"/>
      <point x="58" y="594"/>
    </contour>
    <contour>
      <point x="556" y="347" type="qcurve" smooth="yes"/>
      <point x="630" y="347"/>
      <point x="707" y="242"/>
      <point x="707" y="165" type="qcurve" smooth="yes"/>
      <point x="707" y="92"/>
      <point x="637" y="-15"/>
      <point x="560" y="-15" type="qcurve" smooth="yes"/>
      <point x="490" y="-15"/>
      <point x="403" y="79"/>
      <point x="403" y="165" type="qcurve" smooth="yes"/>
      <point x="403" y="245"/>
      <point x="477" y="347"/>
    </contour>
    <contour>
      <point x="906" y="344" type="qcurve" smooth="yes"/>
      <point x="980" y="344"/>
      <point x="1057" y="239"/>
      <point x="1057" y="162" type="qcurve" smooth="yes"/>
      <point x="1057" y="89"/>
      <point x="987" y="-18"/>
      <point x="910" y="-18" type="qcurve" smooth="yes"/>
      <point x="840" y="-18"/>
      <point x="753" y="76"/>
      <point x="753" y="162" type="qcurve" smooth="yes"/>
      <point x="753" y="242"/>
      <point x="827" y="344"/>
    </contour>
    <contour>
      <point x="433" y="174" type="qcurve" smooth="yes"/>
      <point x="433" y="149"/>
      <point x="447" y="70"/>
      <point x="500" y="8"/>
      <point x="559" y="6" type="qcurve" smooth="yes"/>
      <point x="621" y="6"/>
      <point x="678" y="99"/>
      <point x="678" y="165" type="qcurve" smooth="yes"/>
      <point x="678" y="251"/>
      <point x="598" y="328"/>
      <point x="556" y="328" type="qcurve" smooth="yes"/>
      <point x="486" y="328"/>
      <point x="433" y="229"/>
    </contour>
    <contour>
      <point x="783" y="171" type="qcurve" smooth="yes"/>
      <point x="783" y="146"/>
      <point x="797" y="67"/>
      <point x="850" y="5"/>
      <point x="909" y="3" type="qcurve" smooth="yes"/>
      <point x="971" y="3"/>
      <point x="1028" y="96"/>
      <point x="1028" y="162" type="qcurve" smooth="yes"/>
      <point x="1028" y="248"/>
      <point x="948" y="325"/>
      <point x="906" y="325" type="qcurve" smooth="yes"/>
      <point x="836" y="325"/>
      <point x="783" y="226"/>
    </contour>
  </outline>
</glyph>
<glyph name="uni203A" format="1">
  <advance width="359"/>
  <unicode hex="203A"/>
  <outline>
    <contour>
      <point x="319" y="231" type="line"/>
      <point x="214" y="129" type="line" smooth="yes"/>
      <point x="175" y="92"/>
      <point x="98" y="17"/>
      <point x="59" y="-20" type="qcurve"/>
      <point x="40" y="0" type="line"/>
      <point x="101" y="58"/>
      <point x="221" y="176"/>
      <point x="281" y="234" type="qcurve"/>
      <point x="227" y="295"/>
      <point x="118" y="419"/>
      <point x="65" y="480" type="qcurve"/>
      <point x="82" y="498" type="line"/>
    </contour>
  </outline>
</glyph>
<glyph name="uni20BD" format="1">
  <advance width="601"/>
  <unicode hex="20BD"/>
  <outline>
    <contour>
      <point x="325" y="690" type="qcurve" smooth="yes"/>
      <point x="282" y="690"/>
      <point x="199" y="689"/>
      <point x="155" y="689" type="qcurve"/>
      <point x="155" y="686"/>
      <point x="157" y="581"/>
      <point x="159" y="444"/>
      <point x="161" y="333"/>
      <point x="161" y="323" type="qcurve"/>
      <point x="343" y="325" type="line" smooth="yes"/>
      <point x="430" y="326"/>
      <point x="553" y="425"/>
      <point x="553" y="508" type="qcurve" smooth="yes"/>
      <point x="553" y="523"/>
      <point x="548" y="583"/>
      <point x="510" y="646"/>
      <point x="415" y="690"/>
    </contour>
    <contour>
      <point x="266" y="-1" type="line"/>
      <point x="169" y="-1" type="line" smooth="yes"/>
      <point x="137" y="-1"/>
      <point x="73" y="-1"/>
      <point x="41" y="0" type="qcurve"/>
      <point x="41" y="2"/>
      <point x="40" y="8"/>
      <point x="40" y="12" type="qcurve" smooth="yes"/>
      <point x="40" y="14"/>
      <point x="41" y="19"/>
      <point x="41" y="21" type="qcurve"/>
      <point x="90" y="21" type="line"/>
      <point x="97" y="20"/>
      <point x="112" y="20" type="qcurve" smooth="yes"/>
      <point x="134" y="20"/>
      <point x="138" y="38"/>
      <point x="138" y="60" type="qcurve" smooth="yes"/>
      <point x="136" y="168" type="line"/>
      <point x="50" y="168" type="line"/>
      <point x="50" y="190" type="line"/>
      <point x="136" y="190" type="line"/>
      <point x="134" y="301" type="line"/>
      <point x="49" y="301" type="line"/>
      <point x="49" y="323" type="line"/>
      <point x="133" y="323" type="line"/>
      <point x="127" y="606" type="line" smooth="yes"/>
      <point x="125" y="656"/>
      <point x="125" y="690"/>
      <point x="72" y="690" type="qcurve" smooth="yes"/>
      <point x="65" y="690"/>
      <point x="41" y="688"/>
      <point x="40" y="688" type="qcurve"/>
      <point x="40" y="708" type="line"/>
      <point x="87" y="708" type="line" smooth="yes"/>
      <point x="147" y="708"/>
      <point x="267" y="709"/>
      <point x="325" y="710" type="qcurve" smooth="yes"/>
      <point x="449" y="711"/>
      <point x="556" y="638"/>
      <point x="581" y="548"/>
      <point x="581" y="521" type="qcurve" smooth="yes"/>
      <point x="581" y="409"/>
      <point x="443" y="303"/>
      <point x="342" y="303" type="qcurve" smooth="yes"/>
      <point x="160" y="301" type="line"/>
      <point x="160" y="260" type="line" smooth="yes"/>
      <point x="160" y="242"/>
      <point x="161" y="208"/>
      <point x="161" y="190" type="qcurve"/>
      <point x="401" y="192" type="line"/>
      <point x="401" y="170" type="line"/>
      <point x="161" y="168" type="line"/>
      <point x="163" y="61" type="line" smooth="yes"/>
      <point x="163" y="31"/>
      <point x="179" y="21"/>
      <point x="207" y="21" type="qcurve" smooth="yes"/>
      <point x="267" y="21" type="line"/>
      <point x="267" y="19"/>
      <point x="266" y="11"/>
      <point x="266" y="9" type="qcurve" smooth="yes"/>
    </contour>
  </outline>
</glyph>
<glyph name="uni2122" format="1">
  <advance width="797"/>
  <unicode hex="2122"/>
  <outline>
    <contour>
      <point x="263" y="416" type="line"/>
      <point x="260" y="415"/>
      <point x="191" y="414"/>
      <point x="114" y="414"/>
      <point x="97" y="414" type="qcurve"/>
      <point x="97" y="433" type="line"/>
      <point x="147" y="433" type="line" smooth="yes"/>
      <point x="166" y="433"/>
      <point x="163" y="454" type="qcurve"/>
      <point x="163" y="477"/>
      <point x="162" y="516"/>
      <point x="162" y="543" type="qcurve" smooth="yes"/>
      <point x="162" y="615" type="line" smooth="yes"/>
      <point x="162" y="633"/>
      <point x="163" y="666"/>
      <point x="163" y="684" type="qcurve"/>
      <point x="151" y="684" type="line" smooth="yes"/>
      <point x="81" y="684"/>
      <point x="47" y="674"/>
      <point x="47" y="614" type="qcurve" smooth="yes"/>
      <point x="47" y="584" type="line"/>
      <point x="30" y="584" type="line"/>
      <point x="30" y="628" type="line" smooth="yes"/>
      <point x="30" y="646"/>
      <point x="32" y="683"/>
      <point x="32" y="700" type="qcurve"/>
      <point x="32" y="700"/>
      <point x="120" y="700"/>
      <point x="235" y="699"/>
      <point x="322" y="698"/>
      <point x="320" y="698" type="qcurve"/>
      <point x="320" y="596" type="line"/>
      <point x="319" y="596"/>
      <point x="303" y="600"/>
      <point x="303" y="600" type="qcurve"/>
      <point x="303" y="600"/>
      <point x="299" y="648"/>
      <point x="299" y="667" type="qcurve" smooth="yes"/>
      <point x="299" y="681"/>
      <point x="281" y="684"/>
      <point x="267" y="684" type="qcurve" smooth="yes"/>
      <point x="188" y="684" type="line"/>
      <point x="185" y="623"/>
      <point x="183" y="525"/>
      <point x="183" y="463" type="qcurve" smooth="yes"/>
      <point x="183" y="435"/>
      <point x="210" y="433"/>
      <point x="223" y="433" type="qcurve" smooth="yes"/>
      <point x="263" y="433" type="line"/>
    </contour>
    <contour>
      <point x="547" y="409" type="line"/>
      <point x="537" y="408" type="line"/>
      <point x="524" y="432"/>
      <point x="487" y="512"/>
      <point x="475" y="536" type="qcurve" smooth="yes"/>
      <point x="419" y="647" type="line"/>
      <point x="419" y="454" type="line" smooth="yes"/>
      <point x="419" y="440"/>
      <point x="430" y="435"/>
      <point x="443" y="435" type="qcurve"/>
      <point x="480" y="433" type="line"/>
      <point x="480" y="415" type="line"/>
      <point x="427" y="415" type="line" smooth="yes"/>
      <point x="406" y="415"/>
      <point x="360" y="416"/>
      <point x="340" y="416" type="qcurve"/>
      <point x="341" y="435" type="line"/>
      <point x="359" y="434"/>
      <point x="377" y="434"/>
      <point x="378" y="434" type="qcurve"/>
      <point x="399" y="432"/>
      <point x="399" y="454" type="qcurve" smooth="yes"/>
      <point x="400" y="535" type="line" smooth="yes"/>
      <point x="400" y="560"/>
      <point x="401" y="630"/>
      <point x="401" y="655" type="qcurve"/>
      <point x="403" y="674"/>
      <point x="390" y="679"/>
      <point x="385" y="679" type="qcurve" smooth="yes"/>
      <point x="348" y="679" type="line"/>
      <point x="348" y="697" type="line"/>
      <point x="486" y="702" type="line"/>
      <point x="486" y="701"/>
      <point x="485" y="694"/>
      <point x="485" y="692" type="qcurve" smooth="yes"/>
      <point x="485" y="682" type="line"/>
      <point x="428" y="680" type="line"/>
      <point x="489" y="561" type="line"/>
      <point x="488" y="561" type="line"/>
      <point x="544" y="451" type="line"/>
      <point x="664" y="699" type="line"/>
      <point x="709" y="699" type="line" smooth="yes"/>
      <point x="721" y="699"/>
      <point x="748" y="698"/>
      <point x="759" y="698" type="qcurve"/>
      <point x="759" y="680" type="line"/>
      <point x="728" y="680" type="line" smooth="yes"/>
      <point x="693" y="680"/>
      <point x="693" y="660" type="qcurve" smooth="yes"/>
      <point x="698" y="453" type="line" smooth="yes"/>
      <point x="698" y="446"/>
      <point x="704" y="430"/>
      <point x="719" y="430" type="qcurve" smooth="yes"/>
      <point x="733" y="430"/>
      <point x="766" y="431"/>
      <point x="767" y="431" type="qcurve"/>
      <point x="767" y="412" type="line"/>
      <point x="729" y="413"/>
      <point x="650" y="414"/>
      <point x="613" y="414" type="qcurve"/>
      <point x="614" y="431" type="line"/>
      <point x="623" y="431"/>
      <point x="645" y="431"/>
      <point x="655" y="432" type="qcurve" smooth="yes"/>
      <point x="673" y="433"/>
      <point x="673" y="453" type="qcurve" smooth="yes"/>
      <point x="670" y="667" type="line"/>
    </contour>
  </outline>
</glyph>
